<svg xmlns="http://www.w3.org/2000/svg" width="132" height="1617" viewBox="0 0 132 1617">
  <g fill="none">
    <rect width="40" height="64.2" x="1.2" y="446.4" fill="#D7DCE0"/>
    <rect width="40" height="64.2" x="1.2" y="606.4" fill="#EAECF1"/>
    <path fill="#58595B" d="M6.3,7.7 L4.6,7.7 L4.6,9.4 L6.3,9.4 L6.3,7.7 Z M9.7,7.7 L8,7.7 L8,9.4 L9.7,9.4 L9.7,7.7 Z M13.1,7.7 L11.4,7.7 L11.4,9.4 L13.1,9.4 L13.1,7.7 Z M14.8,1.7 L13.9,1.7 L13.9,0 L12.2,0 L12.2,1.7 L5.4,1.7 L5.4,0 L3.7,0 L3.7,1.7 L2.8,1.7 C1.9,1.7 1.1,2.5 1.1,3.4 L1.1,15.3 C1.1,16.2 1.9,17 2.8,17 L14.7,17 C15.6,17 16.4,16.2 16.4,15.3 L16.4,3.4 C16.5,2.5 15.8,1.7 14.8,1.7 Z M14.8,15.3 L2.9,15.3 L2.9,5.9 L14.8,5.9 L14.8,15.3 Z"/>
    <g fill="#58595B" transform="translate(1 99)">
      <rect width="1.7" height="1.7" x="7" y="8.3"/>
      <path d="M7.9,16 L1.9,16 L1.9,6.6 L13.8,6.6 L13.8,9 C14,9 14.3,9 14.5,9 C14.8,9 15.2,9 15.5,9.1 L15.5,4.1 C15.5,3.2 14.7,2.4 13.8,2.4 L12.9,2.4 L12.9,0.7 L11.2,0.7 L11.2,2.4 L4.4,2.4 L4.4,0.7 L2.7,0.7 L2.7,2.4 L1.8,2.4 C0.9,2.4 0.1,3.2 0.1,4.1 L0.1,16 C0.1,16.9 0.9,17.7 1.8,17.7 L8.1,17.7 C8,17.1 7.9,16.5 7.9,16 Z"/>
      <path d="M12.1,8.3 L10.4,8.3 L10.4,10 L11,10 C11.4,9.8 11.7,9.6 12.1,9.4 L12.1,8.3 Z"/>
      <rect width="1.7" height="1.7" x="3.6" y="8.3"/>
    </g>
    <path fill="#58595B" d="M15.5,109.5 C12.7,109.5 10.3,111.8 10.3,114.7 C10.3,117.6 12.6,119.9 15.5,119.9 C18.4,119.9 20.7,117.6 20.7,114.7 C20.7,111.8 18.4,109.5 15.5,109.5 Z M15.6,118.8 C13.3,118.8 11.5,117 11.5,114.7 C11.5,112.4 13.3,110.6 15.6,110.6 C17.9,110.6 19.7,112.4 19.7,114.7 C19.7,116.9 17.8,118.8 15.6,118.8 Z"/>
    <polygon fill="#58595B" points="15.8 112.1 15 112.1 15 115.2 17.7 116.8 18.1 116.2 15.8 114.8"/>
    <path fill="#58595B" d="M9.9,181.3 C5.1,181.3 1.2,185.2 1.2,190 C1.2,194.8 5.1,198.7 9.9,198.7 C14.7,198.7 18.7,194.8 18.7,190 C18.7,185.2 14.8,181.3 9.9,181.3 Z M9.9,197.1 C6,197.1 2.9,194 2.9,190.1 C2.9,186.2 6,183.1 9.9,183.1 C13.8,183.1 16.9,186.2 16.9,190.1 C16.9,194 13.8,197.1 9.9,197.1 Z"/>
    <path fill="#58595B" d="M10.4,185.7 L9.1,185.7 L9.1,190.9 L13.7,193.7 L14.4,192.6 L10.5,190.3 L10.5,185.7 C10.5,185.7 10.4,185.7 10.4,185.7 Z"/>
    <polygon fill="#58595B" points="2.9 274.6 8.5 280.2 14.1 274.6 15.8 276.3 8.4 283.7 1 276.3"/>
    <polygon fill="#58595B" points="2.2 366 5.5 369.3 8.8 366 9.8 367 5.5 371.3 1.2 367"/>
    <polygon fill="#58595B" points="10.3 822.9 4.7 828.5 10.3 834.1 8.6 835.8 1.2 828.4 8.6 821"/>
    <polygon fill="#58595B" points="1.2 894.2 6.8 888.6 1.2 883 2.9 881.3 10.3 888.7 2.9 896.1"/>
    <path fill="#58595B" d="M6.6 1265.8C4.4 1265.2 3.7 1264.6 3.7 1263.7 3.7 1262.6 4.7 1261.9 6.3 1261.9 8 1261.9 8.7 1262.7 8.8 1264L11 1264C10.9 1262.3 9.9 1260.8 7.9 1260.3L7.9 1258.2 5 1258.2 5 1260.3C3.1 1260.7 1.6 1261.9 1.6 1263.8 1.6 1266.1 3.5 1267.2 6.2 1267.8 8.7 1268.4 9.1 1269.3 9.1 1270.2 9.1 1270.9 8.6 1272 6.5 1272 4.5 1272 3.7 1271.1 3.6 1269.9L1.4 1269.9C1.5 1272 3.1 1273.3 5 1273.7L5 1275.8 7.9 1275.8 7.9 1273.7C9.8 1273.3 11.3 1272.2 11.3 1270.2 11.2 1267.3 8.8 1266.3 6.6 1265.8zM8.5 1341.5L19.8 1341.5 19.8 1330.2 27.3 1330.2 14.2 1317.1 1.1 1330.2 8.6 1330.2 8.5 1341.5 8.5 1341.5zM1 1345.2L27.3 1345.2 27.3 1349 1 1349 1 1345.2z"/>
    <polygon fill="#FFF" points="12 942.2 10.9 941.1 6.5 945.5 2.1 941.1 1 942.2 5.4 946.6 1 951 2.1 952.1 6.5 947.7 10.9 952.1 12 951 7.6 946.6"/>
    <polygon fill="#58595B" points="9.9 779.6 3.2 772.9 1 775.2 9.9 784.1 29 765 26.7 762.7"/>
    <polygon fill="#58595B" points="8.1 745.9 2.8 740.6 1 742.4 8 749.4 23 734.4 21.3 732.7"/>
    <polygon fill="#D4D7DE" points="12 984.5 10.9 983.4 6.5 987.8 2.1 983.4 1 984.5 5.4 988.9 1 993.3 2.1 994.4 6.5 990 10.9 994.4 12 993.3 7.6 988.9"/>
    <polygon fill="#58595B" points="12 1022.6 10.9 1021.5 6.5 1025.9 2.1 1021.5 1 1022.6 5.4 1027 1 1031.4 2.1 1032.5 6.5 1028.1 10.9 1032.5 12 1031.4 7.6 1027"/>
    <polygon fill="#FFF" points="16.7 1095.2 15.1 1093.6 8.7 1100 2.3 1093.6 .7 1095.2 7.1 1101.6 .7 1108 2.3 1109.6 8.7 1103.2 15.1 1109.6 16.7 1108 10.3 1101.6"/>
    <polygon fill="#D4D7DE" points="16.7 1156.7 15.1 1155.1 8.7 1161.5 2.3 1155.1 .7 1156.7 7.1 1163.1 .7 1169.5 2.3 1171.1 8.7 1164.7 15.1 1171.1 16.7 1169.5 10.3 1163.1"/>
    <polygon fill="#58595B" points="16.7 1212.1 15.1 1210.5 8.7 1216.9 2.3 1210.5 .7 1212.1 7.1 1218.5 .7 1224.9 2.3 1226.5 8.7 1220.1 15.1 1226.5 16.7 1224.9 10.3 1218.5"/>
    <polygon fill="#DC5959" points="24 1476.4 21.7 1474.1 12.5 1483.3 3.3 1474.1 1 1476.4 10.2 1485.6 1 1494.8 3.3 1497.1 12.5 1487.9 21.7 1497.1 24 1494.8 14.8 1485.6"/>
    <polygon fill="#35AB75" points="9.9 1413.2 3.3 1406.6 1 1408.8 9.9 1417.7 29 1398.6 26.8 1396.4"/>
    <polygon fill="#58595B" points="6.2 713.5 2.4 709.7 1 711 6.1 716.1 17 705.1 15.8 703.9"/>
    <polygon fill="#AFABA1" points="10.79 1548.489 10.79 1546.639 6.311 1546.639 6.311 1542 4.517 1542 4.517 1546.639 0 1546.639 0 1548.489 4.517 1548.489 4.517 1553.168 6.311 1553.168 6.311 1548.489"/>
    <polygon fill="#AFABA1" points="10.79 1573.849 10.79 1572 0 1572 0 1573.849"/>
  </g>
</svg>
