<?xml version="1.0" encoding="utf-8"?>
<!-- Generator: Adobe Illustrator 19.1.0, SVG Export Plug-In . SVG Version: 6.00 Build 0)  -->
<!DOCTYPE svg PUBLIC "-//W3C//DTD SVG 1.1//EN" "http://www.w3.org/Graphics/SVG/1.1/DTD/svg11.dtd">
<svg version="1.1" id="Layer_1" xmlns="http://www.w3.org/2000/svg" xmlns:xlink="http://www.w3.org/1999/xlink" x="0px" y="0px"
	 width="132px" height="1509px" viewBox="-333 -335 132 1509" style="enable-background:new -333 -335 132 1509;"
	 xml:space="preserve">
<style type="text/css">
	.st0{fill:#D7DCE0;}
	.st1{fill:#EAECF1;}
	.st2{fill:#58595B;}
	.st3{fill:#FFFFFF;}
	.st4{fill:#D4D7DE;}
	.st5{fill:#DC5959;}
	.st6{fill:#35AB75;}
</style>
<rect x="-332.8" y="111.4" class="st0" width="40" height="64.2"/>
<rect x="-332.8" y="271.4" class="st1" width="40" height="64.2"/>
<path class="st2" d="M-327.7-327.3h-1.7v1.7h1.7V-327.3z M-324.3-327.3h-1.7v1.7h1.7V-327.3z M-320.9-327.3h-1.7v1.7h1.7V-327.3z
	 M-319.2-333.3h-0.9v-1.7h-1.7v1.7h-6.8v-1.7h-1.7v1.7h-0.9c-0.9,0-1.7,0.8-1.7,1.7v11.9c0,0.9,0.8,1.7,1.7,1.7h11.9
	c0.9,0,1.7-0.8,1.7-1.7v-11.9C-317.5-332.5-318.2-333.3-319.2-333.3z M-319.2-319.7h-11.9v-9.4h11.9V-319.7z"/>
<g>
	<rect x="-326" y="-227.7" class="st2" width="1.7" height="1.7"/>
	<path class="st2" d="M-325.1-220h-6v-9.4h11.9v2.4c0.2,0,0.5,0,0.7,0c0.3,0,0.7,0,1,0.1v-5c0-0.9-0.8-1.7-1.7-1.7h-0.9v-1.7h-1.7
		v1.7h-6.8v-1.7h-1.7v1.7h-0.9c-0.9,0-1.7,0.8-1.7,1.7v11.9c0,0.9,0.8,1.7,1.7,1.7h6.3C-325-218.9-325.1-219.5-325.1-220z"/>
	<path class="st2" d="M-320.9-227.7h-1.7v1.7h0.6c0.4-0.2,0.7-0.4,1.1-0.6V-227.7z"/>
	<rect x="-329.4" y="-227.7" class="st2" width="1.7" height="1.7"/>
</g>
<path class="st2" d="M-318.5-225.5c-2.8,0-5.2,2.3-5.2,5.2s2.3,5.2,5.2,5.2c2.9,0,5.2-2.3,5.2-5.2S-315.6-225.5-318.5-225.5z
	 M-318.4-216.2c-2.3,0-4.1-1.8-4.1-4.1s1.8-4.1,4.1-4.1c2.3,0,4.1,1.8,4.1,4.1C-314.3-218.1-316.2-216.2-318.4-216.2z"/>
<path class="st2" d="M-318.2-222.9h-0.8v3.1l2.7,1.6l0.4-0.6l-2.3-1.4L-318.2-222.9L-318.2-222.9z"/>
<path class="st2" d="M-324.1-153.7c-4.8,0-8.7,3.9-8.7,8.7s3.9,8.7,8.7,8.7c4.8,0,8.8-3.9,8.8-8.7S-319.2-153.7-324.1-153.7z
	 M-324.1-137.9c-3.9,0-7-3.1-7-7s3.1-7,7-7s7,3.1,7,7S-320.2-137.9-324.1-137.9z"/>
<path class="st2" d="M-323.6-149.3h-1.3v5.2l4.6,2.8l0.7-1.1l-3.9-2.3v-4.6C-323.5-149.3-323.6-149.3-323.6-149.3z"/>
<path class="st2" d="M-331.1-60.4l5.6,5.6l5.6-5.6l1.7,1.7l-7.4,7.4l-7.4-7.4L-331.1-60.4z"/>
<path class="st2" d="M-331.8,31l3.3,3.3l3.3-3.3l1,1l-4.3,4.3l-4.3-4.3L-331.8,31z"/>
<path class="st2" d="M-323.7,487.9l-5.6,5.6l5.6,5.6l-1.7,1.7l-7.4-7.4l7.4-7.4L-323.7,487.9z"/>
<path class="st2" d="M-332.8,559.2l5.6-5.6l-5.6-5.6l1.7-1.7l7.4,7.4l-7.4,7.4L-332.8,559.2z"/>
<path class="st2" d="M-327.4,930.8c-2.2-0.6-2.9-1.2-2.9-2.1c0-1.1,1-1.8,2.6-1.8c1.7,0,2.4,0.8,2.5,2.1h2.2
	c-0.1-1.7-1.1-3.2-3.1-3.7v-2.1h-2.9v2.1c-1.9,0.4-3.4,1.6-3.4,3.5c0,2.3,1.9,3.4,4.6,4c2.5,0.6,2.9,1.5,2.9,2.4
	c0,0.7-0.5,1.8-2.6,1.8c-2,0-2.8-0.9-2.9-2.1h-2.2c0.1,2.1,1.7,3.4,3.6,3.8v2.1h2.9v-2.1c1.9-0.4,3.4-1.5,3.4-3.5
	C-322.8,932.3-325.2,931.3-327.4,930.8z"/>
<path class="st2" d="M-325.5,1006.5h11.3v-11.3h7.5l-13.1-13.1l-13.1,13.1h7.5L-325.5,1006.5L-325.5,1006.5z M-333,1010.2h26.3v3.8
	H-333V1010.2z"/>
<path class="st3" d="M-322,607.2l-1.1-1.1l-4.4,4.4l-4.4-4.4l-1.1,1.1l4.4,4.4l-4.4,4.4l1.1,1.1l4.4-4.4l4.4,4.4l1.1-1.1l-4.4-4.4
	L-322,607.2z"/>
<path class="st2" d="M-325.9,443.3l-5.3-5.3l-1.8,1.8l7.1,7.1l15.2-15.2l-1.8-1.8L-325.9,443.3z"/>
<path class="st2" d="M-327.2,390l-4.3-4.3l-1.5,1.4l5.7,5.7l12.3-12.3l-1.4-1.4L-327.2,390z"/>
<path class="st4" d="M-322,649.5l-1.1-1.1l-4.4,4.4l-4.4-4.4l-1.1,1.1l4.4,4.4l-4.4,4.4l1.1,1.1l4.4-4.4l4.4,4.4l1.1-1.1l-4.4-4.4
	L-322,649.5z"/>
<path class="st2" d="M-322,687.6l-1.1-1.1l-4.4,4.4l-4.4-4.4l-1.1,1.1l4.4,4.4l-4.4,4.4l1.1,1.1l4.4-4.4l4.4,4.4l1.1-1.1l-4.4-4.4
	L-322,687.6z"/>
<path class="st3" d="M-317.3,760.2l-1.6-1.6l-6.4,6.4l-6.4-6.4l-1.6,1.6l6.4,6.4l-6.4,6.4l1.6,1.6l6.4-6.4l6.4,6.4l1.6-1.6l-6.4-6.4
	L-317.3,760.2z"/>
<path class="st4" d="M-317.3,821.7l-1.6-1.6l-6.4,6.4l-6.4-6.4l-1.6,1.6l6.4,6.4l-6.4,6.4l1.6,1.6l6.4-6.4l6.4,6.4l1.6-1.6l-6.4-6.4
	L-317.3,821.7z"/>
<path class="st2" d="M-317.3,877.1l-1.6-1.6l-6.4,6.4l-6.4-6.4l-1.6,1.6l6.4,6.4l-6.4,6.4l1.6,1.6l6.4-6.4l6.4,6.4l1.6-1.6l-6.4-6.4
	L-317.3,877.1z"/>
<path class="st5" d="M-310,1141.4l-2.3-2.3l-9.2,9.2l-9.2-9.2l-2.3,2.3l9.2,9.2l-9.2,9.2l2.3,2.3l9.2-9.2l9.2,9.2l2.3-2.3l-9.2-9.2
	L-310,1141.4z"/>
<path class="st6" d="M-324.1,1078.2l-6.6-6.6l-2.3,2.2l8.9,8.9l19.1-19.1l-2.2-2.2L-324.1,1078.2z"/>
</svg>
