<svg xmlns="http://www.w3.org/2000/svg" width="26" height="26" viewBox="0 0 26 26"><title>Instagram</title><path d="M13 2.55c3.4 0 3.8 0 5.15.07a7.06 7.06 0 0 1 2.37.44A4 4 0 0 1 22 4a4 4 0 0 1 1 1.47 7.06 7.06 0 0 1 .44 2.37c.06 1.34.07 1.75.07 5.15v5.1a7.06 7.06 0 0 1-.46 2.4 4.22 4.22 0 0 1-2.4 2.4 7.06 7.06 0 0 1-2.38.43c-1.3.06-1.7.07-5.1.07s-3.8 0-5.16-.06a7.06 7.06 0 0 1-2.37-.44A4 4 0 0 1 4 22a4 4 0 0 1-1-1.47 7.05 7.05 0 0 1-.44-2.37C2.5 16.82 2.5 16.4 2.5 13s0-3.8.06-5.14A7.05 7.05 0 0 1 3 5.5 4 4 0 0 1 4 4a4 4 0 0 1 1.47-1 7.06 7.06 0 0 1 2.37-.44H13m0-2.3c-3.46 0-3.9 0-5.26.07a9.36 9.36 0 0 0-3.1.6A6.25 6.25 0 0 0 2.4 2.38 6.25 6.25 0 0 0 .9 4.64a9.36 9.36 0 0 0-.6 3.1C.27 9.1.26 9.54.26 13s0 3.9.08 5.26a9.36 9.36 0 0 0 .6 3.1A6.25 6.25 0 0 0 2.4 23.6a6.25 6.25 0 0 0 2.25 1.5 9.36 9.36 0 0 0 3.1.6c1.35.04 1.78.06 5.25.06s3.9 0 5.26-.08a9.36 9.36 0 0 0 3.1-.6 6.52 6.52 0 0 0 3.72-3.72 9.36 9.36 0 0 0 .6-3.1c.05-1.35.07-1.78.07-5.25s0-3.9-.08-5.2a9.36 9.36 0 0 0-.6-3.1 6.25 6.25 0 0 0-1.47-2.3A6.25 6.25 0 0 0 21.37.9a9.36 9.36 0 0 0-3.1-.6C16.9.27 16.47.26 13 .26z" fill="#fff"/><path d="M13 6.45A6.55 6.55 0 1 0 19.55 13 6.55 6.55 0 0 0 13 6.45zm0 10.8A4.25 4.25 0 1 1 17.25 13 4.25 4.25 0 0 1 13 17.25z" fill="#fff"/><circle cx="19.81" cy="6.19" r="1.53" fill="#fff"/></svg>