<?xml version="1.0" encoding="utf-8"?>
<!-- Generator: Adobe Illustrator 21.0.0, SVG Export Plug-In . SVG Version: 6.00 Build 0)  -->
<!DOCTYPE svg PUBLIC "-//W3C//DTD SVG 1.1//EN" "http://www.w3.org/Graphics/SVG/1.1/DTD/svg11.dtd">
<svg version="1.1" id="Layer_1" xmlns="http://www.w3.org/2000/svg" xmlns:xlink="http://www.w3.org/1999/xlink" x="0px" y="0px"
	 width="26px" height="26px" viewBox="0 0 26 26" style="enable-background:new 0 0 26 26;" xml:space="preserve">
<style type="text/css">
	.st0{fill:#FFFFFF;}
</style>
<title>Linked In</title>
<path class="st0" d="M7.6,22.5V9.7H3.3v12.8H7.6z M5.4,7.9c1.2,0.1,2.3-0.8,2.4-2S7,3.6,5.8,3.5c-0.1,0-0.2,0-0.3,0
	C4.3,3.4,3.2,4.3,3.1,5.6s0.8,2.3,2.1,2.4C5.3,7.9,5.4,7.9,5.4,7.9L5.4,7.9z M9.9,22.5h4.2v-7.1c0-0.4,0-0.7,0.1-1
	c0.3-0.9,1.2-1.6,2.2-1.6c1.5,0,2.2,1.2,2.2,2.9v6.9H23v-7.4c0-3.9-2.1-5.8-4.9-5.8c-1.6-0.1-3.1,0.8-3.9,2.2V9.7H9.9L9.9,22.5
	L9.9,22.5z"/>
</svg>
