<svg id="kb_icon" xmlns="http://www.w3.org/2000/svg" width="18" height="12" viewBox="0 0 118 78"><path fill="#fa7850" fill-rule="evenodd" d="M42.881 34.659c-3.494-.24-5.764.244-6.865.526a5.937 5.937 0 0 0-2.153-5.663c-2.586-2.064-6.368-1.657-8.448.91a5.93 5.93 0 0 0 .917 8.382 5.988 5.988 0 0 0 1.951 1.034c-2.561 2.772-4.136 6.438-4.136 10.474 0 2.092.297 4.044.951 5.718L.903 74.488A1.894 1.894 0 0 0 0 76.097a1.91 1.91 0 0 0 1.918 1.904c.339 0 .652-.095.929-.249.07-.038.139-.079.204-.127 9.813-6.077 11.039-6.621 17.607-9.448 6.331-1.929 13.793-2.876 19.201-4.612 2.779-.893 3.677-1.503 5.181-2.588l1.471-1.478c7.648 1.096 27.63 3.811 43.948-4.772 16.625-1.067 22.628 1.34 24.866 2.368a.143.143 0 0 0 .027-.009c.249.127.518.213.816.213 1.008 0 1.825-.81 1.825-1.81 0-.666-.379-1.224-.919-1.539v-.04c-1.897-1.36-6.589-3.701-18.04-7.66 0 0 2.024-2.71 3.638-7.365l.21-.211s15.171.865 15.111-5.88c-.023-2.575-5.769-10.988-13.812-13.247L105.796 0C99 2.726 98.271 11.392 98.056 16.65L93.035.172c-7.033 6.6-1.429 18.507 1.61 24.413 0 0-5.072-.395-17.33 5.003-12.257 5.398-20.225 6.044-34.434 5.071z"/></svg>
