<?xml version="1.0" encoding="utf-8"?>
<!-- Generator: Adobe Illustrator 21.0.0, SVG Export Plug-In . SVG Version: 6.00 Build 0)  -->
<!DOCTYPE svg PUBLIC "-//W3C//DTD SVG 1.1//EN" "http://www.w3.org/Graphics/SVG/1.1/DTD/svg11.dtd">
<svg version="1.1" id="Layer_1" xmlns="http://www.w3.org/2000/svg" xmlns:xlink="http://www.w3.org/1999/xlink" x="0px" y="0px"
	 width="26px" height="26px" viewBox="0 0 26 26" style="enable-background:new 0 0 26 26;" xml:space="preserve">
<style type="text/css">
	.st0{fill:#FFFFFF;}
</style>
<title>Twitter</title>
<g>
	<path class="st0" d="M22.3,8.3c0,0.1,0,0.2,0,0.3s0,0.2,0,0.3c0,1.6-0.3,3.2-0.9,4.8S20,16.7,18.8,18s-2.6,2.4-4.3,3.2
		s-3.6,1.2-5.9,1.2c-0.7,0-1.3,0-2-0.1s-1.3-0.2-1.9-0.4S3.6,21.5,3,21.3s-1.1-0.6-1.7-0.9c0.2,0,0.4,0,0.6,0s0.4,0,0.6,0
		c1.1,0,2.2-0.2,3.2-0.5s2-0.9,2.8-1.5c-1.1,0-2-0.3-2.8-0.9S4.2,16,3.9,15c0.2,0,0.3,0.1,0.4,0.1s0.3,0,0.5,0c0.2,0,0.4,0,0.7,0
		S5.9,15,6.1,15c-1.1-0.2-2-0.8-2.7-1.7s-1.1-1.9-1.1-3c0,0,0,0,0,0s0,0,0-0.1c0.3,0.2,0.7,0.3,1,0.4s0.7,0.2,1.1,0.2
		c-0.6-0.4-1.2-1-1.6-1.7S2.3,7.6,2.3,6.8c0-0.4,0.1-0.8,0.2-1.3S2.7,4.7,3,4.4c0.6,0.7,1.2,1.4,2,2s1.5,1.1,2.4,1.5s1.7,0.8,2.7,1
		s1.9,0.4,2.9,0.5c0-0.2-0.1-0.4-0.1-0.5s0-0.4,0-0.5c0-0.7,0.1-1.3,0.4-1.9s0.6-1.1,1-1.5s0.9-0.8,1.5-1c0.6-0.3,1.2-0.4,1.9-0.4
		c0.7,0,1.4,0.1,2,0.4S20.5,4.6,21,5c0.5-0.1,1.1-0.3,1.6-0.4s1-0.4,1.5-0.7c-0.2,0.5-0.5,1.1-0.8,1.5s-0.8,0.8-1.3,1.1
		c0.5-0.1,0.9-0.2,1.4-0.3s0.9-0.3,1.3-0.5c-0.3,0.5-0.7,0.9-1.1,1.3S22.8,7.9,22.3,8.3z"/>
</g>
</svg>
