<svg xmlns="http://www.w3.org/2000/svg" width="26" height="26" viewBox="0 0 26 26"><title>Pinterest</title><path d="M13.52 2c-6 0-9 4.3-9 7.9 0 2.16.82 4.1 2.6 4.82a.44.44 0 0 0 .62-.32l.26-1a.6.6 0 0 0-.18-.7A3.64 3.64 0 0 1 7 10.22a6 6 0 0 1 6.2-6.05c3.4 0 5.27 2.07 5.27 4.84 0 3.67-1.6 6.75-4 6.75a2 2 0 0 1-2-2.43c.38-1.6 1.12-3.32 1.12-4.47a1.7 1.7 0 0 0-1.7-1.9c-1.38 0-2.47 1.4-2.47 3.27a4.86 4.86 0 0 0 .4 2l-1.67 6.86a14.18 14.18 0 0 0 0 4.8.17.17 0 0 0 .3.07 13.5 13.5 0 0 0 2.28-4.14l.9-3.5a3.62 3.62 0 0 0 3.04 1.6c4.05 0 6.8-3.7 6.8-8.66 0-3.75-3.17-7.24-8-7.24z" fill="#fff"/></svg>