<?xml version="1.0" encoding="utf-8"?>
<!-- Generator: Adobe Illustrator 21.0.0, SVG Export Plug-In . SVG Version: 6.00 Build 0)  -->
<!DOCTYPE svg PUBLIC "-//W3C//DTD SVG 1.1//EN" "http://www.w3.org/Graphics/SVG/1.1/DTD/svg11.dtd">
<svg version="1.1" id="Layer_1" xmlns="http://www.w3.org/2000/svg" xmlns:xlink="http://www.w3.org/1999/xlink" x="0px" y="0px"
	 width="26px" height="26px" viewBox="0 0 26 26" style="enable-background:new 0 0 26 26;" xml:space="preserve">
<style type="text/css">
	.st0{fill:#FFFFFF;}
</style>
<title>Facebook</title>
<g>
	<path class="st0" d="M24,18.5c0,0.5-0.2,0.9-0.4,1.3L16.7,12l6.9-6C23.7,6.4,24,6.9,24,7.5V18.5L24,18.5z M13,13.5l9.6-8.3
		c-0.4-0.2-0.8-0.3-1.3-0.3H4.8C4.3,4.8,3.9,5,3.5,5.1L13,13.5z M15.7,12.9l-2.2,1.9C13.3,14.9,13.2,15,13,15
		c-0.2,0-0.3-0.1-0.5-0.2l-2.2-1.9l-6.9,7.9c0.4,0.2,0.9,0.4,1.5,0.4h16.5c0.5,0,1-0.2,1.5-0.4L15.7,12.9z M2.5,6.1
		C2.3,6.5,2,7,2,7.5v10.9c0,0.5,0.2,0.9,0.4,1.3L9.3,12L2.5,6.1z"/>
</g>
</svg>
