<?xml version="1.0" encoding="utf-8"?>
<!-- Generator: Adobe Illustrator 21.0.0, SVG Export Plug-In . SVG Version: 6.00 Build 0)  -->
<!DOCTYPE svg PUBLIC "-//W3C//DTD SVG 1.1//EN" "http://www.w3.org/Graphics/SVG/1.1/DTD/svg11.dtd">
<svg version="1.1" id="Layer_1" xmlns="http://www.w3.org/2000/svg" xmlns:xlink="http://www.w3.org/1999/xlink" x="0px" y="0px"
	 viewBox="0 0 381 100" style="enable-background:new 0 0 381 100;" xml:space="preserve">
<style type="text/css">
	.st0{fill:#FFFFFF;}
	.st1{enable-background:new    ;}
</style>
<path class="st0" d="M381,100H0V0h381V100z M5,95h371V5H5V95z"/>
<g class="st1">
	<path class="st0" d="M56.5,66.7h-2.4c-0.5,0-0.9-0.1-1.3-0.2c-0.3-0.2-0.5-0.5-0.6-1l-0.6-2.8c-0.8,0.7-1.6,1.4-2.3,1.9
		c-0.8,0.6-1.6,1-2.4,1.4c-0.8,0.4-1.7,0.7-2.7,0.9c-1,0.2-2,0.3-3.2,0.3s-2.3-0.2-3.3-0.5c-1-0.3-1.9-0.8-2.7-1.5
		c-0.8-0.7-1.4-1.5-1.8-2.5c-0.5-1-0.7-2.2-0.7-3.6c0-1.2,0.3-2.4,1-3.5s1.7-2.1,3.2-3c1.5-0.9,3.4-1.6,5.8-2.1
		c2.4-0.6,5.3-0.8,8.7-0.8v-2.4c0-2.4-0.5-4.2-1.5-5.4s-2.5-1.8-4.5-1.8c-1.3,0-2.4,0.2-3.3,0.5s-1.7,0.7-2.3,1.1
		c-0.7,0.4-1.2,0.8-1.7,1.1s-0.9,0.5-1.4,0.5c-0.4,0-0.7-0.1-0.9-0.3c-0.3-0.2-0.5-0.4-0.6-0.7l-1-1.7c1.8-1.7,3.6-2.9,5.5-3.7
		c1.9-0.8,4.1-1.2,6.5-1.2c1.7,0,3.2,0.3,4.5,0.8c1.3,0.6,2.4,1.3,3.3,2.3c0.9,1,1.6,2.2,2,3.6c0.5,1.4,0.7,3,0.7,4.7
		C56.5,47.1,56.5,66.7,56.5,66.7z M42.7,63.4c0.9,0,1.8-0.1,2.6-0.3s1.5-0.5,2.2-0.8c0.7-0.3,1.4-0.8,2-1.3s1.2-1.1,1.8-1.7V53
		c-2.5,0-4.5,0.2-6.3,0.5c-1.7,0.3-3.1,0.7-4.2,1.2c-1.1,0.5-1.9,1.1-2.4,1.8s-0.7,1.4-0.7,2.3c0,0.8,0.1,1.5,0.4,2.1
		c0.3,0.6,0.6,1.1,1,1.4c0.4,0.4,1,0.6,1.6,0.8C41.3,63.3,42,63.4,42.7,63.4z M93.6,41.3C93.4,41.7,93,42,92.5,42
		c-0.3,0-0.6-0.1-1-0.3c-0.4-0.2-0.9-0.5-1.4-0.8s-1.2-0.5-2-0.8c-0.8-0.2-1.7-0.3-2.7-0.3c-0.9,0-1.7,0.1-2.4,0.3
		c-0.7,0.2-1.3,0.5-1.8,0.9c-0.5,0.4-0.9,0.9-1.2,1.4c-0.3,0.5-0.4,1.1-0.4,1.7c0,0.8,0.2,1.4,0.7,2c0.5,0.5,1,1,1.8,1.3
		c0.7,0.4,1.6,0.7,2.5,1s1.9,0.6,2.9,0.9s2,0.7,2.9,1.1c0.9,0.4,1.8,0.9,2.5,1.5c0.7,0.6,1.3,1.3,1.8,2.2s0.7,1.9,0.7,3.1
		c0,1.4-0.2,2.7-0.8,3.9c-0.5,1.2-1.2,2.2-2.2,3.1c-1,0.9-2.2,1.6-3.6,2.1c-1.4,0.5-3.1,0.8-4.9,0.8c-2.1,0-4-0.3-5.8-1
		c-1.7-0.7-3.2-1.6-4.4-2.7l1.3-2c0.2-0.3,0.3-0.5,0.6-0.6c0.2-0.1,0.5-0.2,0.9-0.2s0.7,0.1,1.1,0.4c0.4,0.3,0.9,0.6,1.5,0.9
		s1.3,0.7,2.1,0.9c0.8,0.3,1.8,0.4,3,0.4c1,0,2-0.1,2.7-0.4c0.8-0.3,1.4-0.6,2-1.1c0.5-0.5,0.9-1,1.2-1.6c0.2-0.6,0.4-1.2,0.4-1.9
		c0-0.8-0.2-1.5-0.7-2.1c-0.5-0.5-1-1-1.8-1.4c-0.7-0.4-1.6-0.7-2.5-1c-1-0.3-1.9-0.6-2.9-0.9s-2-0.7-2.9-1.1
		c-0.9-0.4-1.8-0.9-2.5-1.5c-0.7-0.6-1.3-1.4-1.8-2.3c-0.5-0.9-0.7-2-0.7-3.3c0-1.2,0.2-2.3,0.7-3.3c0.5-1.1,1.2-2,2.1-2.8
		s2-1.5,3.4-1.9c1.3-0.5,2.9-0.7,4.6-0.7c2,0,3.8,0.3,5.4,0.9c1.6,0.6,3,1.5,4.1,2.6L93.6,41.3z M102.3,77V36.3h3.2
		c0.8,0,1.2,0.4,1.4,1.1l0.5,3.6c1.3-1.6,2.8-2.9,4.5-3.8s3.6-1.4,5.8-1.4c1.7,0,3.3,0.3,4.7,1c1.4,0.7,2.6,1.7,3.6,3
		c1,1.3,1.8,2.9,2.3,4.9c0.5,1.9,0.8,4.2,0.8,6.7c0,2.2-0.3,4.3-0.9,6.3c-0.6,1.9-1.5,3.6-2.6,5s-2.5,2.5-4.1,3.3
		c-1.6,0.8-3.5,1.2-5.5,1.2c-1.9,0-3.5-0.3-4.8-0.9s-2.5-1.5-3.5-2.6v13.4L102.3,77L102.3,77z M115.8,40.1c-1.7,0-3.3,0.4-4.6,1.2
		c-1.3,0.8-2.5,1.9-3.6,3.4v14.7c1,1.3,2.1,2.2,3.2,2.8s2.5,0.8,3.9,0.8c2.8,0,5-1,6.5-3s2.3-4.9,2.3-8.6c0-2-0.2-3.7-0.5-5.1
		c-0.3-1.4-0.9-2.6-1.5-3.5c-0.7-0.9-1.5-1.6-2.4-2C118.1,40.3,117,40.1,115.8,40.1z M135.4,66.7V36.3h3.1c0.6,0,1,0.1,1.2,0.3
		c0.2,0.2,0.4,0.6,0.5,1.1l0.4,4.7c1-2.1,2.3-3.8,3.9-5c1.5-1.2,3.3-1.8,5.4-1.8c0.8,0,1.6,0.1,2.3,0.3c0.7,0.2,1.3,0.5,1.9,0.8
		l-0.7,4c-0.1,0.5-0.5,0.8-0.9,0.8c-0.3,0-0.7-0.1-1.3-0.3c-0.6-0.2-1.4-0.3-2.4-0.3c-1.9,0-3.4,0.5-4.7,1.6
		c-1.2,1.1-2.3,2.6-3.1,4.7v19.3h-5.6V66.7z M171.9,35.8c2.2,0,4.2,0.4,6,1.1s3.3,1.8,4.6,3.1c1.2,1.4,2.2,3,2.9,4.9
		c0.7,1.9,1,4.1,1,6.5c0,2.4-0.3,4.6-1,6.5s-1.6,3.6-2.9,4.9c-1.3,1.3-2.8,2.4-4.6,3.1c-1.8,0.7-3.8,1.1-6,1.1s-4.2-0.4-6-1.1
		s-3.3-1.8-4.6-3.1s-2.2-3-2.9-4.9c-0.7-1.9-1-4.1-1-6.5c0-2.4,0.3-4.5,1-6.5s1.7-3.6,2.9-4.9c1.3-1.4,2.8-2.4,4.6-3.1
		C167.6,36.2,169.6,35.8,171.9,35.8z M171.9,62.9c3,0,5.2-1,6.7-3s2.2-4.8,2.2-8.4c0-3.6-0.7-6.4-2.2-8.5c-1.5-2-3.7-3-6.7-3
		c-1.5,0-2.8,0.3-4,0.8c-1.1,0.5-2.1,1.3-2.8,2.2c-0.8,1-1.3,2.2-1.7,3.6c-0.4,1.4-0.6,3-0.6,4.8s0.2,3.4,0.6,4.8
		c0.4,1.4,0.9,2.6,1.7,3.6s1.7,1.7,2.8,2.2C169,62.7,170.3,62.9,171.9,62.9z M197.5,36.3v19.4c0,2.3,0.5,4.1,1.6,5.3
		c1.1,1.3,2.7,1.9,4.8,1.9c1.6,0,3-0.4,4.4-1.1c1.4-0.7,2.7-1.8,3.8-3.1V36.3h5.3v30.4h-3.2c-0.8,0-1.2-0.4-1.4-1.1l-0.4-3.3
		c-1.3,1.5-2.8,2.6-4.4,3.5c-1.6,0.9-3.5,1.3-5.6,1.3c-1.7,0-3.1-0.3-4.4-0.8c-1.3-0.5-2.3-1.3-3.2-2.3s-1.5-2.2-1.9-3.6
		c-0.4-1.4-0.6-3-0.6-4.7V36.3H197.5L197.5,36.3z M235.5,67.1c-2.4,0-4.2-0.7-5.5-2c-1.3-1.3-1.9-3.3-1.9-5.8V40.7h-3.7
		c-0.3,0-0.6-0.1-0.8-0.3c-0.2-0.2-0.3-0.5-0.3-0.9v-2.1l5-0.6l1.2-9.4c0-0.3,0.2-0.5,0.4-0.7c0.2-0.2,0.5-0.3,0.8-0.3h2.7v10.5h8.7
		v3.9h-8.7V59c0,1.3,0.3,2.2,0.9,2.8c0.6,0.6,1.4,0.9,2.4,0.9c0.6,0,1-0.1,1.5-0.2s0.8-0.3,1.1-0.5s0.6-0.3,0.8-0.5
		c0.2-0.1,0.4-0.2,0.6-0.2c0.3,0,0.5,0.2,0.8,0.5l1.6,2.5c-0.9,0.9-2,1.5-3.3,2C238.2,66.9,236.9,67.1,235.5,67.1z M277.6,41.3
		c-0.2,0.4-0.6,0.7-1.1,0.7c-0.3,0-0.6-0.1-1-0.3c-0.4-0.2-0.8-0.5-1.4-0.7c-0.6-0.3-1.2-0.5-2-0.8c-0.8-0.2-1.7-0.3-2.7-0.3
		c-0.9,0-1.7,0.1-2.4,0.3c-0.7,0.2-1.3,0.5-1.8,0.9c-0.5,0.4-0.9,0.9-1.2,1.4c-0.3,0.5-0.4,1.1-0.4,1.7c0,0.8,0.2,1.4,0.7,2
		c0.5,0.5,1,1,1.8,1.3c0.7,0.4,1.6,0.7,2.5,1s1.9,0.6,2.9,0.9s2,0.7,2.9,1.1c0.9,0.4,1.8,0.9,2.5,1.5c0.7,0.6,1.3,1.3,1.8,2.2
		s0.7,1.9,0.7,3.1c0,1.4-0.3,2.7-0.8,3.9s-1.2,2.2-2.2,3.1c-1,0.9-2.2,1.6-3.6,2.1c-1.4,0.5-3.1,0.8-4.9,0.8c-2.1,0-4-0.3-5.8-1
		c-1.7-0.7-3.2-1.6-4.4-2.7l1.3-2c0.2-0.3,0.3-0.5,0.6-0.6c0.3-0.1,0.5-0.2,0.9-0.2s0.7,0.1,1.1,0.4c0.4,0.3,0.9,0.6,1.5,0.9
		c0.6,0.3,1.3,0.7,2.1,0.9c0.8,0.3,1.8,0.4,3,0.4c1,0,2-0.1,2.7-0.4c0.8-0.3,1.4-0.6,2-1.1c0.5-0.5,0.9-1,1.2-1.6
		c0.2-0.6,0.4-1.2,0.4-1.9c0-0.8-0.2-1.5-0.7-2.1c-0.5-0.5-1-1-1.8-1.4c-0.7-0.4-1.6-0.7-2.5-1s-1.9-0.6-2.9-0.9s-2-0.7-2.9-1.1
		c-1-0.4-1.8-0.9-2.5-1.5c-0.7-0.6-1.3-1.4-1.8-2.3c-0.5-0.9-0.7-2-0.7-3.3c0-1.2,0.2-2.3,0.7-3.3c0.5-1.1,1.2-2,2.1-2.8
		c0.9-0.8,2-1.5,3.4-1.9c1.3-0.5,2.9-0.7,4.6-0.7c2,0,3.8,0.3,5.4,0.9c1.6,0.6,3,1.5,4.1,2.6L277.6,41.3L277.6,41.3z M293.4,26.7
		c0,0.5-0.1,1-0.3,1.5c-0.2,0.4-0.5,0.8-0.8,1.2c-0.4,0.4-0.8,0.6-1.2,0.8c-0.5,0.2-1,0.3-1.5,0.3s-1-0.1-1.5-0.3
		c-0.5-0.2-0.9-0.5-1.2-0.8c-0.4-0.3-0.6-0.8-0.8-1.2c-0.2-0.5-0.3-0.9-0.3-1.5c0-0.5,0.1-1,0.3-1.5c0.2-0.5,0.5-0.9,0.8-1.2
		c0.3-0.4,0.8-0.6,1.2-0.8c0.5-0.2,1-0.3,1.5-0.3s1,0.1,1.5,0.3c0.5,0.2,0.9,0.5,1.2,0.8c0.3,0.3,0.6,0.8,0.8,1.2
		C293.3,25.6,293.4,26.2,293.4,26.7z M292.2,36.3v30.4h-5.3V36.3C286.9,36.3,292.2,36.3,292.2,36.3z M310.8,67.1
		c-2.4,0-4.2-0.7-5.5-2c-1.3-1.3-1.9-3.3-1.9-5.8V40.7h-3.7c-0.3,0-0.6-0.1-0.8-0.3c-0.2-0.2-0.3-0.5-0.3-0.9v-2.1l5-0.6l1.2-9.4
		c0-0.3,0.2-0.5,0.4-0.7c0.2-0.2,0.5-0.3,0.8-0.3h2.7v10.5h8.7v3.9h-8.7V59c0,1.3,0.3,2.2,0.9,2.8s1.4,0.9,2.4,0.9
		c0.6,0,1-0.1,1.5-0.2c0.4-0.2,0.8-0.3,1.1-0.5s0.6-0.3,0.8-0.5c0.2-0.1,0.4-0.2,0.6-0.2c0.3,0,0.5,0.2,0.8,0.5l1.6,2.5
		c-0.9,0.9-2,1.5-3.3,2C313.6,66.9,312.2,67.1,310.8,67.1L310.8,67.1z M336,35.8c1.8,0,3.5,0.3,5,0.9s2.9,1.5,4,2.6
		c1.1,1.2,2,2.6,2.6,4.3s0.9,3.6,0.9,5.8c0,0.8-0.1,1.4-0.3,1.7c-0.2,0.3-0.5,0.4-1,0.4H327c0,1.9,0.3,3.6,0.8,5s1.1,2.6,2,3.6
		c0.8,1,1.8,1.7,3,2.1c1.2,0.5,2.5,0.7,3.9,0.7c1.3,0,2.5-0.2,3.5-0.5s1.8-0.6,2.5-1s1.3-0.7,1.8-1s0.9-0.5,1.2-0.5
		c0.4,0,0.8,0.2,1,0.5l1.5,2c-0.7,0.8-1.5,1.5-2.4,2.1s-1.9,1.1-3,1.5s-2.1,0.7-3.3,0.9c-1.1,0.2-2.2,0.3-3.3,0.3
		c-2.1,0-4-0.4-5.8-1.1s-3.3-1.8-4.6-3.1s-2.3-3.1-3-5.1s-1.1-4.3-1.1-7c0-2.1,0.3-4.1,1-5.9s1.6-3.4,2.8-4.8
		c1.2-1.3,2.7-2.4,4.5-3.2S333.8,35.8,336,35.8z M336.2,39.7c-2.6,0-4.6,0.7-6.1,2.2s-2.4,3.6-2.8,6.2h16.5c0-1.2-0.2-2.4-0.5-3.4
		s-0.8-1.9-1.5-2.7c-0.7-0.8-1.5-1.3-2.4-1.7C338.5,39.9,337.4,39.7,336.2,39.7z"/>
</g>
</svg>
