<svg version="1.1" id="Layer_1" xmlns="http://www.w3.org/2000/svg" xmlns:xlink="http://www.w3.org/1999/xlink" x="0px" y="0px" width="246px" height="39.4px" viewBox="0 0 246 39.4" style="enable-background:new 0 0 246 39.4;" xml:space="preserve">
    <style type="text/css">
        .logo-sprout{fill:#ffffff;}
        .logo-cms{fill:#778294;}
    </style>
    <g>
        <path class="logo-sprout" d="M17.7,7.8l-1.4,2.9c-1.9-1.2-4.4-2-6.7-2c-2.8,0-4.9,1-4.9,3.3c0,5.5,13.8,2.7,13.8,11.5c0,4.9-4.3,7-9,7
        c-3.5,0-7.1-1.2-9.5-3.5l1.4-2.8c2.1,2,5.3,3.1,8.2,3.1c2.9,0,5.2-1.1,5.3-3.5C15,18,1.2,21,1.3,12.3c0-4.7,4.1-6.7,8.6-6.7
        C12.8,5.6,15.6,6.4,17.7,7.8z"></path>
        <path class="logo-sprout" d="M49.7,18.1c0,7.3-4.8,12.4-11.7,12.4c-4.4,0-7.8-2-9.6-5.4v14.4h-3.6V5.7h3.6V11c1.8-3.5,5.2-5.5,9.5-5.5
        C44.8,5.6,49.7,10.7,49.7,18.1z M46,18c0-5.3-3.6-9.2-8.8-9.2c-5.2,0-8.8,3.8-8.8,9.2c0,5.4,3.6,9.2,8.8,9.2
        C42.3,27.2,46,23.3,46,18z"></path>
        <path class="logo-sprout" d="M59.7,11.2c1.6-3.6,4.7-5.6,8.8-5.6v3.7c-5.2-0.1-8.4,3.1-8.8,8v13.1h-3.6V5.7h3.6V11.2z"></path>
        <path class="logo-sprout" d="M96,18c0,7.4-5.2,12.5-12.5,12.5S71,25.4,71,18c0-7.3,5.2-12.4,12.5-12.4S96,10.7,96,18z M74.7,18.1
        c0,5.4,3.7,9.2,8.8,9.2s8.8-3.7,8.8-9.2c0-5.4-3.7-9.1-8.8-9.1S74.7,12.7,74.7,18.1z"></path>
        <path class="logo-sprout" d="M123.8,30.4h-3.6v-5.6c-1.6,3.8-4.9,5.7-9.4,5.7c-5.8,0-9.2-3.6-9.2-9.6V5.7h3.6v14.2c0,4.4,2.6,6.9,6.8,6.9
        c5.1-0.1,8.1-3.8,8.1-9V5.7h3.6V30.4z"></path>
        <path class="logo-sprout" d="M145.4,28.7c-1.7,1.2-3.6,1.8-5.6,1.9c-3.6,0-6.3-2.2-6.3-7V9.5H130V6.5h3.6V0h3.6v6.5l7.8,0v3h-7.8v13.4
        c0,3,1.2,4.1,3.3,4.1c1.3,0,2.6-0.4,3.9-1.3L145.4,28.7z"></path>
        <path class="logo-cms" d="M175,9.3l-2,2.6c-1.9-1.8-4.4-2.9-7.3-2.9c-5.1,0-8.7,3.7-8.7,9.1c0,5.4,3.6,9.1,8.7,9.1
        c3.2,0,5.9-1.1,7.6-3.2l2.1,2.2c-2.2,2.7-5.6,4.3-9.9,4.3c-7.2,0-12.2-5.1-12.2-12.4c0-7.3,5.1-12.4,12.2-12.4
        C169.4,5.6,172.7,6.9,175,9.3z"></path>
        <path class="logo-cms" d="M222.7,15.2v15.2h-3.6V16.1c0-4.4-2.6-7-6.8-7c-5.1,0.1-8,3.8-8,9.1v12.1h-3.7V16.1c0-4.4-2.5-7-6.8-7
        c-5.1,0.1-8.1,3.8-8.1,9.1v12.1H182V5.7h3.6v5.6c1.6-3.8,5-5.7,9.4-5.7c4.6,0,7.8,2.4,8.8,6.5c1.5-4.4,5-6.4,9.7-6.5
        C219.3,5.6,222.7,9.2,222.7,15.2z"></path>
        <path class="logo-cms" d="M245.2,7.8l-1.4,2.9c-1.9-1.2-4.4-2-6.7-2c-2.8,0-4.9,1-4.9,3.3c0,5.5,13.8,2.7,13.8,11.5c0,4.9-4.3,7-9,7
        c-3.5,0-7.1-1.2-9.5-3.5l1.4-2.8c2.1,2,5.3,3.1,8.2,3.1c2.9,0,5.2-1.1,5.3-3.5c0.1-5.9-13.7-2.9-13.6-11.6c0-4.7,4.1-6.7,8.6-6.7
        C240.3,5.6,243.2,6.4,245.2,7.8z"></path>
    </g>
</svg>