<svg xmlns="http://www.w3.org/2000/svg" xmlns:xlink="http://www.w3.org/1999/xlink" preserveAspectRatio="xMidYMid" width="70.5" height="79.5" viewBox="0 0 141 159">
  <defs>
    <style>
      .cls-1 {
        fill: #fa7850;
      }

      .cls-1, .cls-2 {
        fill-rule: evenodd;
      }

      .cls-2 {
        fill: #fff;
      }
    </style>
  </defs>
  <g>
    <path d="M140.998,135.170 L70.496,159.000 L-0.006,135.170 L-0.006,-10.004 L140.998,-10.004 L140.998,135.170 Z" class="cls-1"/>
    <path d="M51.877,69.659 C48.383,69.419 46.113,69.903 45.012,70.185 C45.370,68.120 44.621,65.929 42.859,64.522 C40.273,62.458 36.491,62.865 34.411,65.432 C32.332,67.998 32.742,71.751 35.328,73.814 C35.926,74.292 36.589,74.631 37.279,74.848 C34.718,77.620 33.143,81.286 33.143,85.322 C33.143,87.414 33.440,89.366 34.094,91.040 L9.899,109.488 C9.358,109.825 8.996,110.417 8.996,111.097 C8.996,112.149 9.855,113.001 10.914,113.001 C11.253,113.001 11.566,112.906 11.843,112.752 C11.913,112.714 11.982,112.673 12.047,112.625 C21.860,106.548 23.086,106.004 29.654,103.177 C35.985,101.248 43.447,100.301 48.855,98.565 C51.634,97.672 52.532,97.062 54.036,95.977 L55.507,94.499 C63.155,95.595 83.137,98.310 99.455,89.727 C116.080,88.660 122.083,91.067 124.321,92.095 C124.329,92.093 124.340,92.090 124.348,92.086 C124.597,92.213 124.866,92.299 125.164,92.299 C126.172,92.299 126.989,91.489 126.989,90.489 C126.989,89.823 126.610,89.265 126.070,88.950 C126.070,88.938 126.070,88.922 126.070,88.910 C124.173,87.550 119.481,85.209 108.030,81.250 C108.030,81.250 110.054,78.540 111.668,73.885 L111.878,73.674 C111.878,73.674 127.049,74.539 126.989,67.794 C126.966,65.219 121.220,56.806 113.177,54.547 L114.792,35.000 C107.996,37.726 107.267,46.392 107.052,51.650 L102.031,35.172 C94.998,41.772 100.602,53.679 103.641,59.585 C103.641,59.585 98.569,59.190 86.311,64.588 C74.054,69.986 66.086,70.632 51.877,69.659 Z" class="cls-2"/>
  </g>
</svg>
