<!-- Generated by IcoMoon.io -->
<svg version="1.1" xmlns="http://www.w3.org/2000/svg" width="32" height="32" viewBox="0 0 32 32">
<title>instagram</title>
<path d="M19.997 6.348c0.926 0.049 1.706 0.146 2.34 0.439 0.683 0.292 1.267 0.683 1.755 1.121 0.488 0.487 0.878 1.073 1.121 1.755 0.244 0.585 0.39 1.414 0.439 2.34 0.049 1.365 0.098 2.681 0.098 3.998s-0.049 2.633-0.098 3.997c-0.049 0.926-0.146 1.706-0.439 2.34-0.293 0.683-0.683 1.267-1.121 1.755-0.488 0.488-1.073 0.878-1.755 1.121-0.585 0.244-1.414 0.39-2.34 0.439-1.365 0.049-2.681 0.098-3.998 0.098s-2.633-0.049-3.998-0.098c-0.926-0.049-1.706-0.146-2.34-0.439-0.682-0.293-1.268-0.683-1.755-1.121-0.487-0.488-0.878-1.073-1.121-1.755-0.244-0.585-0.39-1.414-0.439-2.34-0.049-1.365-0.098-2.681-0.098-3.998s0.049-2.633 0.098-3.998c0.049-0.926 0.146-1.706 0.439-2.34 0.292-0.682 0.683-1.268 1.121-1.755 0.487-0.487 1.073-0.878 1.755-1.121 0.585-0.244 1.414-0.39 2.34-0.439 1.365-0.049 2.681-0.098 3.998-0.098s2.632 0.049 3.998 0.098zM12.051 8.102c-0.731 0.049-1.316 0.146-1.852 0.341-0.39 0.146-0.78 0.39-1.121 0.731-0.293 0.293-0.536 0.682-0.731 1.121-0.195 0.536-0.293 1.121-0.293 1.853-0.049 1.365-0.098 2.681-0.098 3.9s0.049 2.535 0.098 3.949c0.049 0.731 0.146 1.316 0.341 1.852 0.146 0.39 0.39 0.78 0.731 1.121 0.293 0.293 0.682 0.536 1.121 0.731 0.536 0.195 1.121 0.293 1.853 0.293 1.365 0.049 2.681 0.098 3.9 0.098s2.535-0.049 3.949-0.098c0.731-0.049 1.316-0.146 1.852-0.341 0.39-0.146 0.78-0.39 1.121-0.731 0.293-0.293 0.536-0.683 0.731-1.121 0.195-0.536 0.293-1.121 0.293-1.852 0.049-1.365 0.098-2.681 0.098-3.9s-0.049-2.535-0.098-3.949c-0.049-0.731-0.146-1.316-0.341-1.852-0.146-0.39-0.39-0.78-0.731-1.121-0.293-0.293-0.683-0.536-1.121-0.731-0.536-0.195-1.121-0.293-1.852-0.293-1.365-0.049-2.681-0.098-3.9-0.098s-2.535 0-3.949 0.098zM21.021 16c0 1.414-0.488 2.584-1.462 3.559s-2.145 1.462-3.559 1.462c-1.414 0-2.584-0.488-3.559-1.462s-1.463-2.145-1.463-3.559c0-1.414 0.488-2.584 1.463-3.559s2.145-1.463 3.559-1.463c1.414 0 2.584 0.488 3.559 1.463s1.462 2.145 1.462 3.559zM19.266 16c0-0.877-0.341-1.658-0.975-2.291s-1.414-0.975-2.291-0.975c-0.877 0-1.658 0.341-2.291 0.975s-0.975 1.414-0.975 2.291c0 0.878 0.341 1.657 0.975 2.291s1.414 0.975 2.291 0.975c0.877 0 1.658-0.341 2.291-0.975s0.975-1.414 0.975-2.291zM21.216 9.662c-0.341 0-0.585 0.098-0.829 0.341-0.244 0.195-0.341 0.488-0.341 0.829s0.098 0.585 0.341 0.829 0.488 0.341 0.829 0.341c0.341 0 0.585-0.098 0.829-0.341 0.195-0.244 0.341-0.488 0.341-0.829s-0.098-0.585-0.341-0.829c-0.244-0.244-0.488-0.341-0.829-0.341z"></path>
</svg>
