<!-- Generated by IcoMoon.io -->
<svg version="1.1" xmlns="http://www.w3.org/2000/svg" width="32" height="32" viewBox="0 0 32 32">
<title>pinterest</title>
<path d="M12.734 13.709c0-0.878 0.195-1.56 0.634-2.096 0.439-0.585 0.975-0.878 1.56-0.878 0.488 0 0.878 0.146 1.121 0.488 0.293 0.341 0.439 0.78 0.439 1.268 0 0.293-0.049 0.634-0.195 1.121-0.195 0.829-0.341 1.316-0.439 1.56-0.244 0.78-0.39 1.268-0.439 1.414-0.146 0.585-0.049 1.121 0.341 1.609 0.39 0.439 0.878 0.634 1.463 0.634 1.073 0 1.95-0.585 2.633-1.804s1.024-2.681 1.024-4.388c0-1.316-0.439-2.34-1.268-3.218-0.878-0.829-2.048-1.219-3.559-1.219-1.706 0-3.12 0.536-4.095 1.658-1.073 1.073-1.609 2.34-1.609 3.9 0 0.878 0.244 1.658 0.78 2.291 0.195 0.195 0.244 0.39 0.195 0.634-0.098 0.195-0.146 0.488-0.244 0.926-0.049 0.195-0.146 0.293-0.244 0.293-0.146 0.049-0.244 0.049-0.341 0-0.78-0.341-1.365-0.878-1.804-1.658-0.293-0.78-0.488-1.706-0.488-2.779 0-0.683 0.098-1.316 0.341-1.999 0.244-0.731 0.585-1.365 0.975-1.95 0.39-0.536 0.926-1.073 1.658-1.658 0.634-0.488 1.414-0.878 2.34-1.17 0.975-0.293 1.95-0.439 2.925-0.439 1.073 0 2.096 0.195 3.023 0.585 0.926 0.341 1.706 0.829 2.34 1.463s1.121 1.316 1.463 2.145c0.341 0.829 0.536 1.658 0.536 2.486 0 2.291-0.585 4.193-1.755 5.655-1.17 1.511-2.681 2.243-4.485 2.243-0.683 0-1.219-0.146-1.706-0.439-0.536-0.293-0.926-0.634-1.121-1.024-0.39 1.755-0.683 2.828-0.78 3.218-0.244 0.926-0.78 1.999-1.658 3.218h-0.78c-0.146-1.56-0.098-2.876 0.098-3.9l1.463-6.289c-0.244-0.488-0.341-1.121-0.341-1.901z"></path>
</svg>
