<!-- Generated by IcoMoon.io -->
<svg version="1.1" xmlns="http://www.w3.org/2000/svg" width="32" height="32" viewBox="0 0 32 32">
<title>twitter</title>
<path d="M23.95 11.95v0.5c0 1.9-0.45 3.7-1.3 5.45s-2.2 3.2-4.050 4.45c-1.8 1.2-3.95 1.8-6.35 1.8-2.3 0-4.4-0.6-6.3-1.85 0.2 0.050 0.55 0.050 1 0.050 1.95 0 3.65-0.6 5.1-1.75-0.9 0-1.7-0.25-2.4-0.8s-1.2-1.2-1.5-2.050c0.2 0.050 0.45 0.1 0.8 0.1 0.4 0 0.75-0.050 1.1-0.1-0.95-0.2-1.7-0.7-2.35-1.45-0.6-0.75-0.95-1.6-0.95-2.6v-0.1c0.6 0.35 1.2 0.5 1.85 0.5-1.2-0.8-1.85-1.9-1.85-3.4 0-0.7 0.2-1.35 0.6-2.050 2.15 2.7 4.95 4.15 8.45 4.3-0.1-0.3-0.1-0.6-0.1-0.95 0-1.1 0.4-2.1 1.2-2.9s1.75-1.2 2.9-1.2c1.2 0 2.2 0.45 3 1.3 1-0.2 1.9-0.55 2.6-1-0.3 0.95-0.9 1.7-1.8 2.25 0.9-0.15 1.7-0.35 2.35-0.65-0.5 0.8-1.15 1.55-2 2.15z"></path>
</svg>
