<!-- Generated by IcoMoon.io -->
<svg version="1.1" xmlns="http://www.w3.org/2000/svg" width="32" height="32" viewBox="0 0 32 32">
<title>youtube</title>
<path d="M26 15.2v1.5c0 1.1-0.050 2.15-0.2 3.25l-0.050 0.35c-0.050 0.25-0.15 0.5-0.25 0.85-0.15 0.35-0.3 0.6-0.45 0.8-0.5 0.5-1.15 0.8-2.050 0.85-1.85 0.15-4.2 0.2-7 0.2l-6.8-0.2c-0.050 0-0.1 0-0.3-0.050-0.15-0.050-0.3-0.050-0.45-0.1s-0.3-0.050-0.45-0.1c-0.2-0.050-0.35-0.15-0.55-0.25-0.15-0.1-0.35-0.25-0.5-0.4-0.4-0.4-0.65-1.1-0.8-2l-0.15-3.15v-1.5c0-1.050 0.050-2.15 0.2-3.2l0.050-0.4c0.050-0.25 0.15-0.5 0.25-0.85 0.15-0.35 0.3-0.6 0.45-0.75 0.45-0.5 1.15-0.8 2.050-0.85 1.85-0.15 4.2-0.2 7-0.2l7 0.2c0.9 0.1 1.55 0.35 2.050 0.85 0.4 0.4 0.65 1.050 0.8 2l0.15 3.15zM19.35 15.8l-5.4-2.8v5.6l4.75-2.45 0.65-0.35z"></path>
</svg>
