<?xml version="1.0" encoding="utf-8"?>
<!-- Generator: Adobe Illustrator 21.0.0, SVG Export Plug-In . SVG Version: 6.00 Build 0)  -->
<!DOCTYPE svg PUBLIC "-//W3C//DTD SVG 1.1//EN" "http://www.w3.org/Graphics/SVG/1.1/DTD/svg11.dtd">
<svg version="1.1" id="Layer_1" xmlns="http://www.w3.org/2000/svg" xmlns:xlink="http://www.w3.org/1999/xlink" x="0px" y="0px"
	 width="132px" height="1650.5px" viewBox="0 0 132 1650.5" style="enable-background:new 0 0 132 1650.5;" xml:space="preserve">
<style type="text/css">
	.st0{fill:#D7DCE0;}
	.st1{fill:#EAECF1;}
	.st2{fill:#58595B;}
	.st3{fill:#FFFFFF;}
	.st4{fill:#D4D7DE;}
	.st5{fill:#DC5959;}
	.st6{fill:#35AB75;}
</style>
<rect x="0.5" y="446.4" class="st0" width="40" height="64.2"/>
<rect x="0.5" y="606.4" class="st1" width="40" height="64.2"/>
<path class="st2" d="M5.6,7.7H3.9v1.7h1.7V7.7z M9,7.7H7.3v1.7H9V7.7z M12.4,7.7h-1.7v1.7h1.7V7.7z M14.1,1.7h-0.9V0h-1.7v1.7H4.7V0
	H3v1.7H2.1c-0.9,0-1.7,0.8-1.7,1.7v11.9c0,0.9,0.8,1.7,1.7,1.7H14c0.9,0,1.7-0.8,1.7-1.7V3.4C15.8,2.5,15.1,1.7,14.1,1.7z
	 M14.1,15.3H2.2V5.9h11.9V15.3z"/>
<g>
	<rect x="7.3" y="107.3" class="st2" width="1.7" height="1.7"/>
	<path class="st2" d="M8.2,115h-6v-9.4h11.9v2.4c0.2,0,0.5,0,0.7,0c0.3,0,0.7,0,1,0.1v-5c0-0.9-0.8-1.7-1.7-1.7h-0.9v-1.7h-1.7v1.7
		H4.7v-1.7H3v1.7H2.1c-0.9,0-1.7,0.8-1.7,1.7V115c0,0.9,0.8,1.7,1.7,1.7h6.3C8.3,116.1,8.2,115.5,8.2,115z"/>
	<path class="st2" d="M12.4,107.3h-1.7v1.7h0.6c0.4-0.2,0.7-0.4,1.1-0.6V107.3z"/>
	<rect x="3.9" y="107.3" class="st2" width="1.7" height="1.7"/>
</g>
<path class="st2" d="M14.8,109.5c-2.8,0-5.2,2.3-5.2,5.2s2.3,5.2,5.2,5.2c2.9,0,5.2-2.3,5.2-5.2S17.7,109.5,14.8,109.5z M14.9,118.8
	c-2.3,0-4.1-1.8-4.1-4.1s1.8-4.1,4.1-4.1c2.3,0,4.1,1.8,4.1,4.1C19,116.9,17.1,118.8,14.9,118.8z"/>
<path class="st2" d="M15.1,112.1h-0.8v3.1l2.7,1.6l0.4-0.6l-2.3-1.4L15.1,112.1L15.1,112.1z"/>
<path class="st2" d="M9.2,181.3c-4.8,0-8.7,3.9-8.7,8.7s3.9,8.7,8.7,8.7c4.8,0,8.8-3.9,8.8-8.7S14.1,181.3,9.2,181.3z M9.2,197.1
	c-3.9,0-7-3.1-7-7s3.1-7,7-7s7,3.1,7,7S13.1,197.1,9.2,197.1z"/>
<path class="st2" d="M9.7,185.7H8.4v5.2l4.6,2.8l0.7-1.1l-3.9-2.3v-4.6C9.8,185.7,9.7,185.7,9.7,185.7z"/>
<path class="st2" d="M2.2,274.6l5.6,5.6l5.6-5.6l1.7,1.7l-7.4,7.4l-7.4-7.4L2.2,274.6z"/>
<path class="st2" d="M1.5,366l3.3,3.3l3.3-3.3l1,1l-4.3,4.3L0.5,367L1.5,366z"/>
<path class="st2" d="M9.6,822.9L4,828.5l5.6,5.6l-1.7,1.7l-7.4-7.4l7.4-7.4L9.6,822.9z"/>
<path class="st2" d="M0.5,894.2l5.6-5.6L0.5,883l1.7-1.7l7.4,7.4l-7.4,7.4L0.5,894.2z"/>
<path class="st2" d="M5.9,1265.8c-2.2-0.6-2.9-1.2-2.9-2.1c0-1.1,1-1.8,2.6-1.8c1.7,0,2.4,0.8,2.5,2.1h2.2c-0.1-1.7-1.1-3.2-3.1-3.7
	v-2.1H4.3v2.1c-1.9,0.4-3.4,1.6-3.4,3.5c0,2.3,1.9,3.4,4.6,4c2.5,0.6,2.9,1.5,2.9,2.4c0,0.7-0.5,1.8-2.6,1.8c-2,0-2.8-0.9-2.9-2.1
	H0.7c0.1,2.1,1.7,3.4,3.6,3.8v2.1h2.9v-2.1c1.9-0.4,3.4-1.5,3.4-3.5C10.5,1267.3,8.1,1266.3,5.9,1265.8z"/>
<path class="st2" d="M7.8,1341.5h11.3v-11.3h7.5l-13.1-13.1l-13.1,13.1h7.5L7.8,1341.5L7.8,1341.5z M0.3,1345.2h26.3v3.8H0.3V1345.2
	z"/>
<path class="st3" d="M11.3,942.2l-1.1-1.1l-4.4,4.4l-4.4-4.4l-1.1,1.1l4.4,4.4L0.3,951l1.1,1.1l4.4-4.4l4.4,4.4l1.1-1.1l-4.4-4.4
	L11.3,942.2z"/>
<path class="st2" d="M7.4,778.3L2.1,773l-1.8,1.8l7.1,7.1l15.2-15.2l-1.8-1.8L7.4,778.3z"/>
<path class="st2" d="M6.1,725l-4.3-4.3l-1.5,1.4l5.7,5.7l12.3-12.3l-1.4-1.4L6.1,725z"/>
<path class="st4" d="M11.3,984.5l-1.1-1.1l-4.4,4.4l-4.4-4.4l-1.1,1.1l4.4,4.4l-4.4,4.4l1.1,1.1l4.4-4.4l4.4,4.4l1.1-1.1l-4.4-4.4
	L11.3,984.5z"/>
<path class="st2" d="M11.3,1022.6l-1.1-1.1l-4.4,4.4l-4.4-4.4l-1.1,1.1l4.4,4.4l-4.4,4.4l1.1,1.1l4.4-4.4l4.4,4.4l1.1-1.1l-4.4-4.4
	L11.3,1022.6z"/>
<path class="st3" d="M16,1095.2l-1.6-1.6L8,1100l-6.4-6.4l-1.6,1.6l6.4,6.4L0,1108l1.6,1.6l6.4-6.4l6.4,6.4l1.6-1.6l-6.4-6.4
	L16,1095.2z"/>
<path class="st4" d="M16,1156.7l-1.6-1.6l-6.4,6.4l-6.4-6.4l-1.6,1.6l6.4,6.4l-6.4,6.4l1.6,1.6l6.4-6.4l6.4,6.4l1.6-1.6l-6.4-6.4
	L16,1156.7z"/>
<path class="st2" d="M16,1212.1l-1.6-1.6l-6.4,6.4l-6.4-6.4l-1.6,1.6l6.4,6.4l-6.4,6.4l1.6,1.6l6.4-6.4l6.4,6.4l1.6-1.6l-6.4-6.4
	L16,1212.1z"/>
<path class="st5" d="M23.3,1476.4l-2.3-2.3l-9.2,9.2l-9.2-9.2l-2.3,2.3l9.2,9.2l-9.2,9.2l2.3,2.3l9.2-9.2l9.2,9.2l2.3-2.3l-9.2-9.2
	L23.3,1476.4z"/>
<path class="st6" d="M9.2,1413.2l-6.6-6.6l-2.3,2.2l8.9,8.9l19.1-19.1l-2.2-2.2L9.2,1413.2z"/>
<path class="st2" d="M14.8,1555.3h-0.9l-0.3-0.3c1.2-1.3,1.9-3.1,1.9-5c0-4.2-3.4-7.7-7.7-7.7c-4.2,0-7.7,3.4-7.7,7.7
	s3.4,7.7,7.7,7.7c1.9,0,3.7-0.7,5-1.9l0.3,0.3v0.9l5.9,5.9l1.8-1.8L14.8,1555.3z M7.7,1555.3c-2.9,0-5.3-2.4-5.3-5.3
	s2.4-5.3,5.3-5.3s5.3,2.4,5.3,5.3S10.6,1555.3,7.7,1555.3z"/>
<path class="st3" d="M5.3,1611.2h2.4v-1.8h1.8l-3-3l-3,3h1.8V1611.2z M4.7,1611.8H3v-1.8l-3,3l3,3v-1.8h1.8V1611.8z M13,1613l-3-3
	v1.8H8.3v2.4H10v1.8L13,1613z M7.7,1614.8H5.3v1.8H3.5l3,3l3-3H7.7V1614.8z"/>
</svg>
