<?xml version="1.0" encoding="utf-8"?>
<!-- Generator: Adobe Illustrator 21.0.2, SVG Export Plug-In . SVG Version: 6.00 Build 0)  -->
<svg version="1.1" id="Layer_1" xmlns="http://www.w3.org/2000/svg" xmlns:xlink="http://www.w3.org/1999/xlink" x="0px" y="0px"
	 width="26px" height="26px" viewBox="0 0 26 26" style="enable-background:new 0 0 26 26;" xml:space="preserve">
<style type="text/css">
	.st0{fill:#FFFFFF;}
</style>
<title>You Tube</title>
<path class="st0" d="M23.4,7.9c-0.3-1.1-1.2-2-2.3-2.1c-2.7-0.3-5.4-0.4-8.1-0.3c-2.7-0.1-5.4,0-8.1,0.3c-1.1,0.1-2.1,1-2.3,2.1
	C2.3,9.6,2.2,11.3,2.2,13c-0.1,1.7,0.1,3.4,0.4,5.1c0.3,1.1,1.2,2,2.3,2.1c2.7,0.3,5.4,0.4,8.1,0.3c2.7,0.1,5.4,0,8.1-0.3
	c1.1-0.1,2.1-1,2.3-2.1c0.3-1.7,0.4-3.4,0.4-5.1C23.8,11.3,23.7,9.6,23.4,7.9L23.4,7.9z M10.2,16.4V9.2l6.8,3.6L10.2,16.4z"/>
</svg>
