<svg xmlns="http://www.w3.org/2000/svg" width="24" height="24" viewBox="0 0 24 24">
  <path fill="#FFF" d="M12.1725495,2 C6.72418315,2 4,5.90466252 4,9.1736823 C4,11.1350942 4.74461006,12.8967326 6.36095873,13.5505366 C6.47329043,13.6032842 6.60375495,13.6008404 6.71403245,13.543923 C6.82430996,13.4870055 6.90187917,13.3820771 6.92395658,13.259957 L7.16005246,12.351896 C7.25361594,12.1272874 7.18690778,11.8678668 6.99660147,11.7162532 C6.47833368,11.0835633 6.21303461,10.2811954 6.25199141,9.46426184 C6.23878974,7.97937959 6.83223588,6.55344182 7.8950253,5.51636505 C8.95781471,4.47928827 10.3978561,3.92093576 11.8819699,3.97049248 C14.9693775,3.97049248 16.6674517,5.85017886 16.6674517,8.36550797 C16.6674517,11.698092 15.214554,14.4949201 13.0352075,14.4949201 C12.4775653,14.5079984 11.9448435,14.2640961 11.5903731,13.8334146 C11.2359027,13.4027331 11.099006,12.8330488 11.2190854,12.2883317 C11.5641486,10.835434 12.2361137,9.27356902 12.2361137,8.22929881 C12.2882334,7.78944946 12.1489076,7.34840275 11.8535665,7.0183156 C11.5582254,6.68822844 11.1353258,6.50090563 10.6924099,6.50398281 C9.4392857,6.50398281 8.44949915,7.77526828 8.44949915,9.47334245 C8.44075166,10.0975936 8.56455235,10.7165971 8.81272357,11.2894646 L7.29626162,17.5187634 C7.04856833,18.9611042 7.04856833,20.4351156 7.29626162,21.8774564 C7.30862589,21.9361274 7.35384551,21.9823313 7.41223671,21.9959559 C7.47062792,22.0095806 7.53162638,21.9881609 7.56867993,21.9410207 C8.47450119,20.8193914 9.17536617,19.5467681 9.63905913,18.1816479 L10.4563141,15.0034343 C11.0734507,15.9213124 12.1108189,16.4672957 13.2168197,16.4563319 C16.8944669,16.4563319 19.3916348,13.096506 19.3916348,8.59252323 C19.3916348,5.18729429 16.5130813,2.01816122 12.1271464,2.01816122 L12.1725495,2 Z"/>
</svg>
