<svg xmlns="http://www.w3.org/2000/svg" width="22" height="22" viewBox="0 0 22 22">
  <path fill="#292B42" d="M18.922715,4.25803093 L15.8724449,1.20780172 C15.2081396,0.543496429 13.8960085,0 12.9565524,0 L2.70809064,0 C1.76863464,0 1,0.768634639 1,1.70809064 L1,20.155322 C1,21.0947369 1.76863464,21.8633716 2.70809064,21.8633716 L18.4223851,21.8633716 C19.3618001,21.8633716 20.1304348,21.0947369 20.1304348,20.155322 L20.1304348,7.17392329 C20.1304758,6.23446729 19.5869793,4.92229523 18.922715,4.25803093 Z M17.9564901,5.22425591 C18.023351,5.29111688 18.089925,5.37318656 18.1546134,5.46583265 L14.6646432,5.46583265 L14.6646432,1.97590345 C14.7573302,2.04059173 14.8393999,2.10720674 14.9062199,2.1740267 L17.9564901,5.22425591 Z M18.7640279,20.155322 C18.7640279,20.3404912 18.6075954,20.4969237 18.4224261,20.4969237 L2.70809064,20.4969237 C2.52292143,20.4969237 2.36648891,20.3404912 2.36648891,20.155322 L2.36648891,1.70809064 C2.36648891,1.52292143 2.52296243,1.36648891 2.70809064,1.36648891 L12.9565524,1.36648891 C13.059734,1.36648891 13.1755007,1.37952495 13.2981952,1.40285045 L13.2981952,6.83232156 L18.7276663,6.83232156 C18.7509918,6.95501614 18.7640279,7.07074178 18.7640279,7.17392329 L18.7640279,20.155322 Z M6.425,7 C6.425,6.54837456 6.92177179,6.27303997 7.30474939,6.51240098 L15.3047494,11.512401 C15.6650835,11.7376098 15.6650835,12.2623902 15.3047494,12.487599 L7.30474939,17.487599 C6.92177179,17.72696 6.425,17.4516254 6.425,17 L6.425,7 Z M7.575,15.9625576 L13.9150922,12 L7.575,8.03744239 L7.575,15.9625576 Z"/>
</svg>
