<?xml version="1.0" encoding="UTF-8"?><svg width="24" height="24" viewBox="0 0 24 24" xmlns="http://www.w3.org/2000/svg"><g fill="#58595B" fill-rule="nonzero"><path d="M10.9 10.6h1.7v1.7h-1.7z"/><path d="M11.8 18.3h-6V8.9h11.9v2.4h.7c.3 0 .7 0 1 .1v-5c0-.9-.8-1.7-1.7-1.7h-.9V3h-1.7v1.7H8.3V3H6.6v1.7h-.9c-.9 0-1.7.8-1.7 1.7v11.9c0 .9.8 1.7 1.7 1.7H12c-.1-.6-.2-1.2-.2-1.7z"/><path d="M16 10.6h-1.7v1.7h.6c.4-.2.7-.4 1.1-.6v-1.1zM7.5 10.6h1.7v1.7H7.5zM18.4 12.8c-2.8 0-5.2 2.3-5.2 5.2 0 2.9 2.3 5.2 5.2 5.2 2.9 0 5.2-2.3 5.2-5.2 0-2.9-2.3-5.2-5.2-5.2zm.1 9.3c-2.3 0-4.1-1.8-4.1-4.1s1.8-4.1 4.1-4.1 4.1 1.8 4.1 4.1c0 2.2-1.9 4.1-4.1 4.1z"/><path d="M18.7 15.4h-.8v3.1l2.7 1.6.4-.6-2.3-1.4z"/></g></svg>