<svg xmlns="http://www.w3.org/2000/svg" width="22" height="22" viewBox="0 0 22 22">
  <path fill="#292B42" d="M17.6222375,12.5859721 C17.3308532,12.2988921 16.6846262,12.1468459 15.7012658,12.1339329 C15.0356077,12.1265949 14.234424,12.1852161 13.3917134,12.3031965 C13.0143651,12.0854781 12.6254974,11.8485337 12.3201753,11.5632165 C11.4989455,10.7963447 10.8134465,9.73189838 10.3862905,8.56140105 C10.4141253,8.45207046 10.4378198,8.35598088 10.4598745,8.2579236 C10.4598745,8.2579236 10.9224491,5.63050494 10.8000004,4.74216827 C10.783152,4.62033455 10.7727805,4.58499786 10.7400264,4.49030207 L10.6998524,4.38707956 C10.5740424,4.09688411 10.3273414,3.78938926 9.94056442,3.80615575 L9.71374546,3.79894083 L9.70751439,3.79881785 C9.27621813,3.79881785 8.92469588,4.01940574 8.83241873,4.34911926 C8.55193882,5.38323005 8.84135539,6.93025586 9.36583067,8.93395313 L9.23157582,9.26030516 C8.85603118,10.1757798 8.38542182,11.0977724 7.97019514,11.9111723 L7.91620624,12.0169775 C7.47937581,12.8718631 7.08300629,13.5975772 6.72369523,14.2123619 L6.3527009,14.4085175 C6.32568596,14.4227833 5.68987139,14.7590558 5.54073577,14.8492833 C4.27558365,15.6046769 3.43721848,16.4622272 3.29812635,17.1427251 C3.253853,17.3598695 3.28681205,17.6377258 3.51190927,17.7664055 L3.87072841,17.9469834 C4.02638205,18.0249537 4.19052142,18.0644717 4.35867818,18.0644717 C5.25976394,18.0644717 6.30588593,16.9419783 7.74698364,14.4270057 C9.41084191,13.885313 11.3052086,13.4350776 12.9654594,13.1867369 C14.2306935,13.8991689 15.78682,14.3939647 16.7689916,14.3939647 C16.9433793,14.3939647 17.0937038,14.3773212 17.2158655,14.345018 C17.4042322,14.2951285 17.5630014,14.1876836 17.6597878,14.0419095 C17.8503272,13.7551576 17.8889845,13.3601409 17.8372502,12.9556955 C17.8218366,12.8357065 17.725952,12.6873088 17.6222375,12.5859721 Z M4.16334249,17.3806944 C4.32764584,16.9314018 4.97809521,16.0431882 5.93981087,15.2550814 C6.0002768,15.2060528 6.14920745,15.0664687 6.28559398,14.9368872 C5.27989192,16.5408945 4.606404,17.1801935 4.16334249,17.3806944 Z M9.85951957,4.26348311 C10.1491821,4.26348311 10.3139364,4.99358353 10.3276283,5.6780578 C10.3412793,6.36257306 10.1811983,6.84297997 9.9826241,7.19843761 C9.81815678,6.6721586 9.73866972,5.8426481 9.73866972,5.3002585 C9.73866972,5.3002585 9.72657653,4.26348311 9.85951957,4.26348311 Z M8.1603246,13.6111052 C8.36209632,13.2499083 8.57202581,12.8689935 8.78654661,12.4650402 C9.30946413,11.4761456 9.63971056,10.7023457 9.88567365,10.0663262 C10.3748532,10.9563026 10.9840628,11.7129261 11.7002253,12.3191431 C11.7895509,12.3947357 11.8842057,12.4707384 11.9836157,12.5465359 C10.5272684,12.8346817 9.26855227,13.185138 8.1603246,13.6111052 Z M17.3424135,13.5290765 C17.2537028,13.5845412 16.9996229,13.6165983 16.8361805,13.6165983 C16.3087126,13.6165983 15.6560906,13.3754315 14.7411899,12.9832024 C15.0927122,12.9571713 15.4150468,12.9439713 15.7040944,12.9439713 C16.233161,12.9439713 16.3898805,12.9416756 16.9072228,13.0736349 C17.4245652,13.205594 17.4310832,13.4736118 17.3424135,13.5290765 Z M18.9336307,4.25803093 L15.8833605,1.20780172 C15.2190552,0.543496429 13.9069241,0 12.9674681,0 L2.71900627,0 C1.77955027,0 1.01091563,0.768634639 1.01091563,1.70809064 L1.01091563,20.155322 C1.01091563,21.0947369 1.77955027,21.8633716 2.71900627,21.8633716 L18.4333007,21.8633716 C19.3727158,21.8633716 20.1413504,21.0947369 20.1413504,20.155322 L20.1413504,7.17392329 C20.1413915,6.23446729 19.5978949,4.92229523 18.9336307,4.25803093 Z M17.9674057,5.22425591 C18.0342667,5.29111688 18.1008407,5.37318656 18.165529,5.46583265 L14.6755588,5.46583265 L14.6755588,1.97590345 C14.7682458,2.04059173 14.8503155,2.10720674 14.9171355,2.1740267 L17.9674057,5.22425591 Z M18.7749435,20.155322 C18.7749435,20.3404912 18.618511,20.4969237 18.4333418,20.4969237 L2.71900627,20.4969237 C2.53383706,20.4969237 2.37740454,20.3404912 2.37740454,20.155322 L2.37740454,1.70809064 C2.37740454,1.52292143 2.53387806,1.36648891 2.71900627,1.36648891 L12.9674681,1.36648891 C13.0706496,1.36648891 13.1864163,1.37952495 13.3091109,1.40285045 L13.3091109,6.83232156 L18.7385819,6.83232156 C18.7619075,6.95501614 18.7749435,7.07074178 18.7749435,7.17392329 L18.7749435,20.155322 Z"/>
</svg>
