<svg xmlns="http://www.w3.org/2000/svg" width="26" height="26" viewBox="0 0 26 26">
  <path fill="#FFF" d="M12.9956846,2 C15.9905845,2 16.3617105,2.00863084 17.544135,2.03452334 C18.4588784,2.0543789 19.3636018,2.22948666 20.219694,2.55237348 C20.9483378,2.84176335 21.6051428,3.2865058 22.1443703,3.85562966 C22.7083759,4.41576541 23.1416181,5.09362734 23.4131032,5.84072185 C23.73599,6.69681407 23.9110978,7.60153747 23.9309533,8.51628089 C24,9.63828953 24,10.0094155 24,13.0043154 C24,15.9992154 23.9827383,16.3703413 23.9395842,17.5355041 C23.9197286,18.4502475 23.7446208,19.3549709 23.421734,20.2110632 C22.8499465,21.6847225 21.6847225,22.8499465 20.2110632,23.421734 C19.3549709,23.7446208 18.4502475,23.9197286 17.5355041,23.9395842 C16.3617105,24.0086308 15.9905845,24.0086308 12.9956846,24.0086308 C10.0007846,24.0086308 9.62965869,23.9913692 8.46449588,23.9568458 C7.54975245,23.9369903 6.64502905,23.7618825 5.78893684,23.4389957 C5.05490494,23.1543377 4.39207999,22.7124544 3.84699882,22.1443703 C3.29242139,21.5983786 2.86255175,20.9388526 2.58689682,20.2110632 C2.26401,19.3549709 2.08890225,18.4502475 2.06904668,17.5355041 C2,16.3617105 2,15.9819537 2,12.9956846 C2,10.0094155 2.00863084,9.62965869 2.03452334,8.45586505 C2.0543789,7.54112162 2.22948666,6.63639822 2.55237348,5.780306 C2.83591999,5.04318287 3.27786863,4.37731359 3.84699882,3.82973715 C4.39383285,3.27827346 5.05329599,2.85138884 5.780306,2.57826599 C6.63639822,2.25537917 7.54112162,2.08027141 8.45586505,2.06041585 C9.62965869,2 10.0094155,2 12.9956846,2 Z M12.9956846,3.97646136 L12.9956846,3.98509219 L8.5421734,3.98509219 C7.84360906,3.9934814 7.15168997,4.12193895 6.49666536,4.36484896 C6.0143635,4.55372442 5.58074282,4.84870447 5.22793252,5.22793252 C4.84547258,5.58817634 4.55028174,6.0309626 4.36484896,6.52255787 C4.12274456,7.17481283 3.99429713,7.86375817 3.98509219,8.55943507 C3.93330718,9.71596705 3.93330718,10.0612005 3.93330718,12.9956846 C3.93330718,15.9301687 3.93330718,16.2926638 3.98509219,17.4491958 C3.99330989,18.1477769 4.12177284,18.8397251 4.36484896,19.4947038 C4.55372442,19.9770057 4.84870447,20.4106263 5.22793252,20.7634366 C5.63259777,21.1274909 6.11761206,21.3906999 6.64338956,21.531581 C7.29841418,21.774491 7.99033326,21.9029486 8.68889761,21.9113378 C9.86269125,21.9631228 10.2079247,21.9631228 13.1424088,21.9631228 C16.0768929,21.9631228 16.4221263,21.954492 17.544135,21.9027069 C18.2450979,21.8980728 18.9400051,21.7725223 19.5982738,21.531581 C20.5482161,21.1614509 21.2995443,20.4101227 21.6696744,19.4601805 C21.9214123,18.7980402 22.0557639,18.0970752 22.0666928,17.3887799 L22.0666928,12.9870537 C22.0666928,10.0525696 22.058062,9.69870537 22.006277,8.5421734 C21.9978878,7.84360906 21.8694302,7.15168997 21.6265202,6.49666536 C21.4376447,6.0143635 21.1426647,5.58074282 20.7634366,5.22793252 C20.4028856,4.86636331 19.9666189,4.58927503 19.486073,4.41663397 C18.8310484,4.17372396 18.1391293,4.04526641 17.4405649,4.03687721 C16.2754021,3.97646136 15.9301687,3.97646136 12.9956846,3.97646136 Z M12.9956846,7.34248725 C14.4950057,7.34248725 15.9329186,7.93809026 16.9930988,8.99827041 C18.0532789,10.0584506 18.6488819,11.4963634 18.6488819,12.9956846 C18.6488819,16.1178593 16.1178593,18.6488819 12.9956846,18.6488819 C9.87350991,18.6488819 7.34248725,16.1178593 7.34248725,12.9956846 C7.34248725,9.87350991 9.87350991,7.34248725 12.9956846,7.34248725 Z M12.9956846,16.6637897 C13.9685266,16.6637897 14.9015234,16.2773298 15.5894266,15.5894266 C16.2773298,14.9015234 16.6637897,13.9685266 16.6637897,12.9956846 C16.6637897,10.9698461 15.0215231,9.32757944 12.9956846,9.32757944 C10.9698461,9.32757944 9.32757944,10.9698461 9.32757944,12.9956846 C9.32757944,15.0215231 10.9698461,16.6637897 12.9956846,16.6637897 Z M18.8732836,8.43860337 C18.1439818,8.43860337 17.5527658,7.84738739 17.5527658,7.11808552 C17.5527658,6.38878365 18.1439818,5.79756767 18.8732836,5.79756767 C19.6025855,5.79756767 20.1938015,6.38878365 20.1938015,7.11808552 C20.1938015,7.84738739 19.6025855,8.43860337 18.8732836,8.43860337 Z"/>
</svg>
