<svg xmlns="http://www.w3.org/2000/svg" width="22" height="22" viewBox="0 0 22 22">
  <g fill="none" fill-rule="evenodd">
    <path fill="#292B42" fill-rule="nonzero" d="M18.9336307,4.25803093 L15.8833605,1.20780172 C15.2190552,0.543496429 13.9069241,0 12.9674681,0 L2.71900627,0 C1.77955027,0 1.01091563,0.768634639 1.01091563,1.70809064 L1.01091563,20.155322 C1.01091563,21.0947369 1.77955027,21.8633716 2.71900627,21.8633716 L18.4333007,21.8633716 C19.3727158,21.8633716 20.1413504,21.0947369 20.1413504,20.155322 L20.1413504,7.17392329 C20.1413915,6.23446729 19.5978949,4.92229523 18.9336307,4.25803093 Z M17.9674057,5.22425591 C18.0342667,5.29111688 18.1008407,5.37318656 18.165529,5.46583265 L14.6755588,5.46583265 L14.6755588,1.97590345 C14.7682458,2.04059173 14.8503155,2.10720674 14.9171355,2.1740267 L17.9674057,5.22425591 Z M18.7749435,20.155322 C18.7749435,20.3404912 18.618511,20.4969237 18.4333418,20.4969237 L2.71900627,20.4969237 C2.53383706,20.4969237 2.37740454,20.3404912 2.37740454,20.155322 L2.37740454,1.70809064 C2.37740454,1.52292143 2.53387806,1.36648891 2.71900627,1.36648891 L12.9674681,1.36648891 C13.0706496,1.36648891 13.1864163,1.37952495 13.3091109,1.40285045 L13.3091109,6.83232156 L18.7385819,6.83232156 C18.7619075,6.95501614 18.7749435,7.07074178 18.7749435,7.17392329 L18.7749435,20.155322 Z"/>
    <path fill="#292B42" fill-rule="nonzero" d="M4.95833333,18.1946158 L4.95833333,8.42538504 L16.0416667,8.42538504 L16.0416667,18.1946158 L4.95833333,18.1946158 Z M15.0416667,17.1946158 L15.0416667,9.42538504 L5.95833333,9.42538504 L5.95833333,17.1946158 L15.0416667,17.1946158 Z"/>
    <path fill="#292B42" fill-rule="nonzero" d="M5.45833333 11.6176927C5.18219096 11.6176927 4.95833333 11.3938351 4.95833333 11.1176927 4.95833333 10.8415504 5.18219096 10.6176927 5.45833333 10.6176927L15.5416667 10.6176927C15.817809 10.6176927 16.0416667 10.8415504 16.0416667 11.1176927 16.0416667 11.3938351 15.817809 11.6176927 15.5416667 11.6176927L5.45833333 11.6176927zM5.45833333 13.8100004C5.18219096 13.8100004 4.95833333 13.5861428 4.95833333 13.3100004 4.95833333 13.033858 5.18219096 12.8100004 5.45833333 12.8100004L15.5416667 12.8100004C15.817809 12.8100004 16.0416667 13.033858 16.0416667 13.3100004 16.0416667 13.5861428 15.817809 13.8100004 15.5416667 13.8100004L5.45833333 13.8100004zM5.45833333 16.0023081C5.18219096 16.0023081 4.95833333 15.7784505 4.95833333 15.5023081 4.95833333 15.2261657 5.18219096 15.0023081 5.45833333 15.0023081L15.5416667 15.0023081C15.817809 15.0023081 16.0416667 15.2261657 16.0416667 15.5023081 16.0416667 15.7784505 15.817809 16.0023081 15.5416667 16.0023081L5.45833333 16.0023081z"/>
    <path fill="#292B42" fill-rule="nonzero" d="M8.625,8.92538504 C8.625,8.64924266 8.84885763,8.42538504 9.125,8.42538504 C9.40114237,8.42538504 9.625,8.64924266 9.625,8.92538504 L9.625,17.6946158 C9.625,17.9707582 9.40114237,18.1946158 9.125,18.1946158 C8.84885763,18.1946158 8.625,17.9707582 8.625,17.6946158 L8.625,8.92538504 Z"/>
  </g>
</svg>
