<svg xmlns="http://www.w3.org/2000/svg" width="24" height="24" viewBox="0 0 24 24">
  <path fill="#FFF" fill-rule="evenodd" d="M22.1481574,7.35255406 C21.8990783,6.25502377 20.9844451,5.43419915 19.8664607,5.3048775 C17.2542426,5.06084148 14.6304146,4.96318039 12.0072831,5.01235228 C9.38415228,4.96326187 6.76032886,5.06092279 4.14810544,5.3048775 C3.03504929,5.43632857 2.12723989,6.25805259 1.88591039,7.35255406 C1.57791916,8.99126861 1.45364044,10.6592198 1.51537844,12.3254828 C1.45364044,13.9917458 1.57791916,15.6596971 1.88591039,17.2984116 C2.13253905,18.3898268 3.03759406,19.2090577 4.14810544,19.3460882 C6.76033018,19.5900226 9.38415246,19.6876834 12.0072831,19.6386134 C14.6304141,19.6877242 17.2542386,19.5900632 19.8664607,19.3460882 C20.9807097,19.2129023 21.8905471,18.3928772 22.1384066,17.2984116 C22.4360377,15.6585298 22.5505,13.9906501 22.479686,12.3254828 C22.5439902,10.6595936 22.4229874,8.99171716 22.1189049,7.35255406 L22.1481574,7.35255406 Z M9.27704767,15.5920145 L9.27704767,8.63966503 L15.9466227,12.1207152 L9.27704767,15.5920145 Z"/>
</svg>
