<svg xmlns="http://www.w3.org/2000/svg" width="24" height="24" viewBox="0 0 24 24">
  <path fill="#FFF" d="M10.0567686,21.9126638 L10.0567686,12.8296943 L7,12.8296943 L7,9.2489083 L10.0567686,9.2489083 L10.0567686,6.62882096 C10.0567686,5.84279476 10.1441048,5.23144105 10.4061135,4.62008734 C10.6681223,4.00873362 10.930131,3.5720524 11.3668122,3.13537118 C11.8034934,2.69868996 12.2401747,2.43668122 12.8515284,2.26200873 C13.4628821,2.08733624 14.0742358,2 14.6855895,2 C15.2969432,2 15.9082969,2 16.4323144,2.08733624 C16.9563319,2.17467249 17.3056769,2.17467249 17.3930131,2.17467249 L17.3930131,5.31877729 L15.558952,5.31877729 C14.860262,5.31877729 14.3362445,5.49344978 14.1615721,5.75545852 C13.9868996,6.01746725 13.8122271,6.45414847 13.8122271,6.97816594 L13.8122271,9.2489083 L17.3056769,9.2489083 L16.7816594,12.8296943 L13.7248908,12.8296943 L13.7248908,22 L10.0567686,22 L10.0567686,21.9126638 Z"/>
</svg>
