<svg xmlns="http://www.w3.org/2000/svg" width="22" height="22" viewBox="0 0 22 22">
  <path fill="#292B42" d="M18.9336307,4.25803093 L15.8833605,1.20780172 C15.2190552,0.543496429 13.9069241,0 12.9674681,0 L2.71900627,0 C1.77955027,0 1.01091563,0.768634639 1.01091563,1.70809064 L1.01091563,20.155322 C1.01091563,21.0947369 1.77955027,21.8633716 2.71900627,21.8633716 L18.4333007,21.8633716 C19.3727158,21.8633716 20.1413504,21.0947369 20.1413504,20.155322 L20.1413504,7.17392329 C20.1413915,6.23446729 19.5978949,4.92229523 18.9336307,4.25803093 Z M17.9674057,5.22425591 C18.0342667,5.29111688 18.1008407,5.37318656 18.165529,5.46583265 L14.6755588,5.46583265 L14.6755588,1.97590345 C14.7682458,2.04059173 14.8503155,2.10720674 14.9171355,2.1740267 L17.9674057,5.22425591 Z M18.7749435,20.155322 C18.7749435,20.3404912 18.618511,20.4969237 18.4333418,20.4969237 L2.71900627,20.4969237 C2.53383706,20.4969237 2.37740454,20.3404912 2.37740454,20.155322 L2.37740454,1.70809064 C2.37740454,1.52292143 2.53387806,1.36648891 2.71900627,1.36648891 L12.9674681,1.36648891 C13.0706496,1.36648891 13.1864163,1.37952495 13.3091109,1.40285045 L13.3091109,6.83232156 L18.7385819,6.83232156 C18.7619075,6.95501614 18.7749435,7.07074178 18.7749435,7.17392329 L18.7749435,20.155322 Z M5,9.25 L16,9.25 L16,8.25 L5,8.25 L5,9.25 Z M5,6.5 L10,6.5 L10,5.5 L5,5.5 L5,6.5 Z M5,12 L16,12 L16,11 L5,11 L5,12 Z M5,14.75 L16,14.75 L16,13.75 L5,13.75 L5,14.75 Z M5,17.5 L16,17.5 L16,16.5 L5,16.5 L5,17.5 Z"/>
</svg>
