<svg xmlns="http://www.w3.org/2000/svg" width="24" height="24" viewBox="0 0 24 24">
  <path fill="#58595B" d="M8.79364678,11.0598231 L6.57264687,11.0598231 L6.57264687,13.280823 L8.79364678,13.280823 L8.79364678,11.0598231 Z M13.2356466,11.0598231 L11.0146467,11.0598231 L11.0146467,13.280823 L13.2356466,13.280823 L13.2356466,11.0598231 Z M17.6776464,11.0598231 L15.4566465,11.0598231 L15.4566465,13.280823 L17.6776464,13.280823 L17.6776464,11.0598231 Z M19.8986463,3.22099991 L18.7228228,3.22099991 L18.7228228,1 L16.5018229,1 L16.5018229,3.22099991 L7.6178233,3.22099991 L7.6178233,1 L5.39682339,1 L5.39682339,3.22099991 L4.22099991,3.22099991 C3.04517643,3.22099991 2,4.26617634 2,5.44199982 L2,20.9889992 C2,22.1648227 3.04517643,23.2099991 4.22099991,23.2099991 L19.7679993,23.2099991 C20.9438227,23.2099991 21.9889992,22.1648227 21.9889992,20.9889992 L21.9889992,5.44199982 C22.1196462,4.26617634 21.2051169,3.22099991 19.8986463,3.22099991 Z M19.8986463,20.9889992 L4.35164696,20.9889992 L4.35164696,8.70817615 L19.8986463,8.70817615 L19.8986463,20.9889992 Z"/>
</svg>
