<svg xmlns="http://www.w3.org/2000/svg" width="22" height="22" viewBox="0 0 22 22">
  <g fill="none" fill-rule="evenodd">
    <path fill="#292B42" fill-rule="nonzero" d="M6.78240741 14.4038667C6.20395899 14.4038667 5.75462963 14.80817 5.75462963 15.2788667 5.75462963 15.7495633 6.20395899 16.1538667 6.78240741 16.1538667 7.33095885 16.1538667 7.81018519 15.7069713 7.81018519 15.2788667L7.81018519 14.4038667 6.78240741 14.4038667zM8.81018519 15.2788667C8.81018519 16.2754685 7.86823868 17.1538667 6.78240741 17.1538667 5.67383738 17.1538667 4.75462963 16.3267701 4.75462963 15.2788667 4.75462963 14.2309632 5.67383738 13.4038667 6.78240741 13.4038667L8.81018519 13.4038667 8.81018519 15.2788667zM12.3842593 15.5705333C11.8058108 15.5705333 11.3564815 15.9748367 11.3564815 16.4455333 11.3564815 16.91623 11.8058108 17.3205333 12.3842593 17.3205333 12.9328107 17.3205333 13.412037 16.8736379 13.412037 16.4455333L13.412037 15.5705333 12.3842593 15.5705333zM14.412037 16.4455333C14.412037 17.4421351 13.4700905 18.3205333 12.3842593 18.3205333 11.2756892 18.3205333 10.3564815 17.4934368 10.3564815 16.4455333 10.3564815 15.3976299 11.2756892 14.5705333 12.3842593 14.5705333L14.412037 14.5705333 14.412037 16.4455333z"/>
    <polygon fill="#292B42" fill-rule="nonzero" points="13.412 9.753 8.81 8.058 8.81 13.987 7.81 13.987 7.81 6.624 14.412 9.055 14.412 15.362 13.412 15.362"/>
    <polygon fill="#292B42" fill-rule="nonzero" points="13.739 11.477 8.137 9.415 8.483 8.476 14.085 10.539"/>
    <path fill="#292B42" fill-rule="nonzero" d="M18.922715,4.25803093 L15.8724449,1.20780172 C15.2081396,0.543496429 13.8960085,0 12.9565524,0 L2.70809064,0 C1.76863464,0 1,0.768634639 1,1.70809064 L1,20.155322 C1,21.0947369 1.76863464,21.8633716 2.70809064,21.8633716 L18.4223851,21.8633716 C19.3618001,21.8633716 20.1304348,21.0947369 20.1304348,20.155322 L20.1304348,7.17392329 C20.1304758,6.23446729 19.5869793,4.92229523 18.922715,4.25803093 Z M17.9564901,5.22425591 C18.023351,5.29111688 18.089925,5.37318656 18.1546134,5.46583265 L14.6646432,5.46583265 L14.6646432,1.97590345 C14.7573302,2.04059173 14.8393999,2.10720674 14.9062199,2.1740267 L17.9564901,5.22425591 Z M18.7640279,20.155322 C18.7640279,20.3404912 18.6075954,20.4969237 18.4224261,20.4969237 L2.70809064,20.4969237 C2.52292143,20.4969237 2.36648891,20.3404912 2.36648891,20.155322 L2.36648891,1.70809064 C2.36648891,1.52292143 2.52296243,1.36648891 2.70809064,1.36648891 L12.9565524,1.36648891 C13.059734,1.36648891 13.1755007,1.37952495 13.2981952,1.40285045 L13.2981952,6.83232156 L18.7276663,6.83232156 C18.7509918,6.95501614 18.7640279,7.07074178 18.7640279,7.17392329 L18.7640279,20.155322 Z"/>
  </g>
</svg>
