<svg width="24" height="24" viewBox="0 0 24 24" xmlns="http://www.w3.org/2000/svg"><path d="M16.609 3.205c.071.817-.161 1.545-.697 2.184-.536.639-1.213.994-2.03 1.066-.818.071-1.546-.161-2.185-.697-.639-.536-.994-1.213-1.066-2.03-.072-.83.16-1.562.696-2.194A2.902 2.902 0 0 1 13.358.477a2.902 2.902 0 0 1 2.184.688c.638.53.994 1.21 1.067 2.04zm-1.12 15.097l1.779-.156c-1.222 3.339-3.183 5.126-5.883 5.362-1.092.096-1.934-.061-2.526-.471-.592-.41-.927-1.067-1.006-1.972-.046-.528.101-1.476.443-2.844l1.581-6.263c.123-.485.179-.797.167-.938-.013-.141-.054-.241-.124-.3-.07-.06-.176-.082-.317-.07-.599.052-1.236.877-1.913 2.475L6 13.273c1.228-3.41 3.22-5.235 5.98-5.476.974-.086 1.752.086 2.333.514.582.429.91 1.06.982 1.894.054.611-.102 1.601-.467 2.97l-1.556 5.747c-.224.813-.328 1.319-.31 1.519.01.129.058.225.14.29.083.063.194.089.335.076.305-.026.673-.325 1.102-.895.429-.57.746-1.107.95-1.61z" fill="#FFF" fill-rule="nonzero"/></svg>