<svg xmlns="http://www.w3.org/2000/svg" width="22" height="22" viewBox="0 0 22 22">
  <g fill="none" fill-rule="evenodd">
    <path fill="#292B42" fill-rule="nonzero" d="M18.922715,4.25803093 L15.8724449,1.20780172 C15.2081396,0.543496429 13.8960085,0 12.9565524,0 L2.70809064,0 C1.76863464,0 1,0.768634639 1,1.70809064 L1,20.155322 C1,21.0947369 1.76863464,21.8633716 2.70809064,21.8633716 L18.4223851,21.8633716 C19.3618001,21.8633716 20.1304348,21.0947369 20.1304348,20.155322 L20.1304348,7.17392329 C20.1304758,6.23446729 19.5869793,4.92229523 18.922715,4.25803093 Z M17.9564901,5.22425591 C18.023351,5.29111688 18.089925,5.37318656 18.1546134,5.46583265 L14.6646432,5.46583265 L14.6646432,1.97590345 C14.7573302,2.04059173 14.8393999,2.10720674 14.9062199,2.1740267 L17.9564901,5.22425591 Z M18.7640279,20.155322 C18.7640279,20.3404912 18.6075954,20.4969237 18.4224261,20.4969237 L2.70809064,20.4969237 C2.52292143,20.4969237 2.36648891,20.3404912 2.36648891,20.155322 L2.36648891,1.70809064 C2.36648891,1.52292143 2.52296243,1.36648891 2.70809064,1.36648891 L12.9565524,1.36648891 C13.059734,1.36648891 13.1755007,1.37952495 13.2981952,1.40285045 L13.2981952,6.83232156 L18.7276663,6.83232156 C18.7509918,6.95501614 18.7640279,7.07074178 18.7640279,7.17392329 L18.7640279,20.155322 Z"/>
    <path fill="#292B42" d="M8,8 C7.999,8.55 7.55,9 7,9 C6.447,9 6.001,8.55 6,8 C6.001,7.45 6.447,7 7,7 C7.55,7 7.999,7.45 8,8 L9,8 C8.999,6.9 8.103,6 7,6 C5.895,6 5,6.9 5,8 C5,9.11 5.895,10 7,10 C8.103,10 8.999,9.11 9,8 L8.5,8 L8,8 Z"/>
    <path fill="#292B42" fill-rule="nonzero" d="M6.48415201,16.9044318 L15.6113269,16.9044318 L12.9242037,10.4536486 L10.4798015,14.7598976 C10.2921872,15.0904134 9.84124797,15.1512375 9.57276957,14.8822409 L8.17847356,13.4852539 L6.48415201,16.9044318 Z M9.8528027,13.5348987 L12.5035649,8.86511006 C12.739609,8.44927637 13.3505427,8.48646322 13.5344084,8.92785635 L17.0045299,17.2583272 C17.1622965,17.6370661 16.8840248,18.0544318 16.4737402,18.0544318 L5.55749409,18.0544318 C5.13094807,18.0544318 4.85289084,17.6063206 5.04228153,17.224126 L7.50396773,12.2563895 C7.67871682,11.903742 8.14813078,11.8269367 8.42615849,12.105501 L9.8528027,13.5348987 Z"/>
  </g>
</svg>
