<svg xmlns="http://www.w3.org/2000/svg" width="24" height="24" viewBox="0 0 24 24">
  <path fill="#FFF" d="M23,17.5 C23,18 22.8,18.4 22.6,18.8 L15.7,11 L22.6,5 C22.7,5.4 23,5.9 23,6.5 L23,17.5 Z M12,12.5 L21.6,4.2 C21.2,4 20.8,3.9 20.3,3.9 L3.8,3.9 C3.3,3.8 2.9,4 2.5,4.1 L12,12.5 Z M14.7,11.9 L12.5,13.8 C12.3,13.9 12.2,14 12,14 C11.8,14 11.7,13.9 11.5,13.8 L9.3,11.9 L2.4,19.8 C2.8,20 3.3,20.2 3.9,20.2 L20.4,20.2 C20.9,20.2 21.4,20 21.9,19.8 L14.7,11.9 Z M1.5,5.1 C1.3,5.5 1,6 1,6.5 L1,17.4 C1,17.9 1.2,18.3 1.4,18.7 L8.3,11 L1.5,5.1 Z"/>
</svg>
