<svg xmlns="http://www.w3.org/2000/svg" width="24" height="24" viewBox="0 0 24 24">
  <path fill="#FFF" d="M20.7435897,7.41880342 C20.7435897,7.51282051 20.7435897,7.60683761 20.7435897,7.7008547 C20.7435897,7.79487179 20.7435897,7.88888889 20.7435897,7.98290598 C20.7435897,9.48717949 20.4615385,10.991453 19.8974359,12.4957265 C19.3333333,14 18.5811966,15.3162393 17.4529915,16.5384615 C16.3247863,17.7606838 15.008547,18.7948718 13.4102564,19.5470085 C11.8119658,20.2991453 10.025641,20.6752137 7.86324786,20.6752137 C7.20512821,20.6752137 6.64102564,20.6752137 5.98290598,20.5811966 C5.32478632,20.4871795 4.76068376,20.3931624 4.1965812,20.2051282 C3.63247863,20.017094 3.16239316,19.8290598 2.5982906,19.6410256 C2.03418803,19.4529915 1.56410256,19.0769231 1,18.7948718 C1.18803419,18.7948718 1.37606838,18.7948718 1.56410256,18.7948718 C1.75213675,18.7948718 1.94017094,18.7948718 2.12820513,18.7948718 C3.16239316,18.7948718 4.1965812,18.6068376 5.13675214,18.3247863 C6.07692308,18.042735 7.01709402,17.4786325 7.76923077,16.9145299 C6.73504274,16.9145299 5.88888889,16.6324786 5.13675214,16.0683761 C4.38461538,15.5042735 3.72649573,14.6581197 3.44444444,13.7179487 C3.63247863,13.7179487 3.72649573,13.8119658 3.82051282,13.8119658 C3.91452991,13.8119658 4.1025641,13.8119658 4.29059829,13.8119658 C4.47863248,13.8119658 4.66666667,13.8119658 4.94871795,13.8119658 C5.23076923,13.8119658 5.32478632,13.7179487 5.51282051,13.7179487 C4.47863248,13.5299145 3.63247863,12.965812 2.97435897,12.1196581 C2.31623932,11.2735043 1.94017094,10.3333333 1.94017094,9.2991453 C1.94017094,9.2991453 1.94017094,9.2991453 1.94017094,9.2991453 C1.94017094,9.2991453 1.94017094,9.2991453 1.94017094,9.20512821 C2.22222222,9.39316239 2.5982906,9.48717949 2.88034188,9.58119658 C3.16239316,9.67521368 3.53846154,9.76923077 3.91452991,9.76923077 C3.35042735,9.39316239 2.78632479,8.82905983 2.41025641,8.17094017 C2.03418803,7.51282051 1.94017094,6.76068376 1.94017094,6.00854701 C1.94017094,5.63247863 2.03418803,5.25641026 2.12820513,4.78632479 C2.22222222,4.31623932 2.31623932,4.03418803 2.5982906,3.75213675 C3.16239316,4.41025641 3.72649573,5.06837607 4.47863248,5.63247863 C5.23076923,6.1965812 5.88888889,6.66666667 6.73504274,7.04273504 C7.58119658,7.41880342 8.33333333,7.79487179 9.27350427,7.98290598 C10.2136752,8.17094017 11.0598291,8.35897436 12,8.45299145 C12,8.26495726 11.9059829,8.07692308 11.9059829,7.98290598 C11.9059829,7.88888889 11.9059829,7.60683761 11.9059829,7.51282051 C11.9059829,6.85470085 12,6.29059829 12.2820513,5.72649573 C12.5641026,5.16239316 12.8461538,4.69230769 13.2222222,4.31623932 C13.5982906,3.94017094 14.0683761,3.56410256 14.6324786,3.37606838 C15.1965812,3.09401709 15.7606838,3 16.4188034,3 C17.0769231,3 17.7350427,3.09401709 18.2991453,3.37606838 C18.8632479,3.65811966 19.0512821,3.94017094 19.5213675,4.31623932 C19.991453,4.22222222 20.5555556,4.03418803 21.025641,3.94017094 C21.4957265,3.84615385 21.965812,3.56410256 22.4358974,3.28205128 C22.2478632,3.75213675 21.965812,4.31623932 21.6837607,4.69230769 C21.4017094,5.06837607 20.9316239,5.44444444 20.4615385,5.72649573 C20.9316239,5.63247863 21.3076923,5.53846154 21.7777778,5.44444444 C22.2478632,5.35042735 22.6239316,5.16239316 23,4.97435897 C22.7179487,5.44444444 22.3418803,5.82051282 21.965812,6.1965812 C21.5897436,6.57264957 21.2136752,7.04273504 20.7435897,7.41880342 Z"/>
</svg>
