<svg xmlns="http://www.w3.org/2000/svg" width="24" height="24" viewBox="0 0 24 24">
  <path fill="#FFF" d="M6.50757674,21.0075767 L6.50757674,8.20757674 L2.20757674,8.20757674 L2.20757674,21.0075767 L6.50757674,21.0075767 Z M6.70757674,4.40757674 C6.80757674,3.20757674 5.90757674,2.10757674 4.70757674,2.00757674 C4.60757674,2.00757674 4.50757674,2.00757674 4.40757674,2.00757674 C3.20757674,1.90757674 2.10757674,2.80757674 2.00757674,4.10757674 C1.90757674,5.40757674 2.80757674,6.40757674 4.10757674,6.50757674 C4.20757674,6.40757674 4.30757674,6.40757674 4.30757674,6.40757674 C5.50757674,6.50757674 6.60757674,5.60757674 6.70757674,4.40757674 Z M13.0075767,21.0075767 L13.0075767,13.9075767 C13.0075767,13.5075767 13.0075767,13.2075767 13.1075767,12.9075767 C13.4075767,12.0075767 14.3075767,11.3075767 15.3075767,11.3075767 C16.8075767,11.3075767 17.5075767,12.5075767 17.5075767,14.2075767 L17.5075767,21.1075767 L21.9075767,21.1075767 L21.9075767,13.7075767 C21.9075767,9.80757674 19.8075767,7.90757674 17.0075767,7.90757674 C15.4075767,7.80757674 13.9075767,8.70757674 13.1075767,10.1075767 L13.1075767,8.20757674 L8.80757674,8.20757674 L8.80757674,21.0075767 L13.0075767,21.0075767 Z"/>
</svg>
